<svg enable-background="new 0 0 42.9 33.1" viewBox="0 0 42.9 33.1" xmlns="http://www.w3.org/2000/svg"><path d="m21.4 27.9c6.3 0 11.3-5.1 11.3-11.3 0-6.3-5.1-11.3-11.3-11.3-6.3 0-11.3 5.1-11.3 11.3s5.1 11.3 11.3 11.3z" fill="#2c374b"/><path clip-rule="evenodd" d="m27.6 12.5c-.1-.1-5-3-5.6-3.2-.2-.1-.7-.2-1-.1s-5.5 3.1-5.7 3.3c-.1.1-.2.3-.3.4-.1.2-.1.3-.1 3.8v3.6l.7.4c.4.2.7.4.7.4.1 0 4.8-7.5 4.8-7.6s-1.1-.1-1.4 0c-.4.1-.7.3-.9.5-.1.1-.7 1.1-1.5 2.2-.7 1.1-1.3 2.1-1.3 2.1s0-1 0-2.4v-2.5l.1-.1c.2-.2 5.3-3.1 5.5-3.1.1 0 .2 0 1.4.7.4.2 1.5.8 2.4 1.4.9.5 1.7 1 1.8 1.1l.1.1v5.2l-2.5-3.9c-.1-.2-.2-.4-.3-.5s-.1.2-.7 1.2c-.1.1-.2.3-.2.4l-.1.2.1.1.1.1s0 .1.1.1l.2.3s0 .1.1.1c.1.1.2.3.2.4v.1l2.1 3.4-.2.1c-.1.1-.2.1-.3.1l-2.6-4-.1-.1-.2.4-1 1.6 2 3.2c-.3.2-2 1.4-2.1 1.4s-2.4-1.5-2.3-1.6c0 0 .7-1.2 1.5-2.6.7-1.2 1.6-2.7 2.2-3.7.7-1.2 1-1.8 1-1.8s-.5 0-1.1 0h-1l-2.3 3.8c-.8 1.4-1.6 2.7-2 3.4-.7.1-.9.3-.9.3l-.1.2 1.8 1c1 .6 1.9 1.1 2.1 1.2.3.2.8.2 1 .2.2-.1 5.4-3.1 5.7-3.3.1-.1.2-.2.3-.4l.1-.3v-3.3-3.3l-.1-.2c0-.2-.2-.4-.2-.5z" fill="#fff" fill-rule="evenodd"/><path d="m27.1 18.6-3-4.6-1.1 1.8 2.9 4.7 1.3-.6z" fill="#24a2ee"/><path d="m25.7 21.1-3-4.6-1.3 2 2.4 3.8 1.5-.6z" fill="#24a2ee"/><path clip-rule="evenodd" d="m15.9 13.4 5.5-3.2 5.5 3.2v6.4l-5.5 3.2-4.1-2.3-.5.9 4.5 2.6c.1.1.2.1.3 0l6.3-3.6c.1-.1.2-.2.2-.3v-7.2c0-.1-.1-.2-.2-.3l-6.3-3.6c-.1-.1-.2-.1-.3 0l-6.3 3.5c-.1.1-.2.2-.2.3v7.2c0 .1.1.2.2.3l1.3.7.6-.9-.9-.5v-6.4z" fill="#98bcdc" fill-rule="evenodd"/><g fill="#fff"><path d="m23.8 13.4h-2.1l-4.9 8 1.7 1z"/><path d="m18.5 14.2c.5-.8 1.9-.8 2.5-.7l-4.8 7.7c-.2-.1-.6-.3-.9-.5-.4-.2-.5-.2-.5-.5v-.4c1.1-1.6 3.2-4.8 3.7-5.6z"/></g></svg>