<svg width="45" height="45" viewBox="0 0 45 45" fill="none" xmlns="http://www.w3.org/2000/svg">
<path d="M17.6778 35.257C19.5561 39.6571 26.9125 39.3678 27.4603 38.4191C27.0847 37.3955 25.5821 35.9352 24.8777 35.257C22.5299 36.2141 20.1039 37.1274 17.6778 35.257Z" fill="url(#paint0_linear)"/>
<path d="M35.6776 23.5582C34.9263 22.2942 32.782 20.7111 30.9398 19.71C24.9253 22.0517 20.3967 22.6185 16.1582 22.387C19.1648 23.0037 24.3299 24.7429 28.0457 27.9193C32.0985 26.6323 34.8631 24.8802 35.6776 23.5582Z" fill="url(#paint1_linear)"/>
<path d="M40.2168 15.3354C34.6604 10.2547 16.7389 7.56553 5 12.9638C20.0258 13.9164 32.8604 19.2712 35.6778 23.558L40.2168 15.3354Z" fill="url(#paint2_linear)"/>
<path d="M31.2952 31.3042C27.3822 26.0647 20.0258 22.0573 9.53906 21.5016L13.7651 29.565C20.965 30.7508 26.5214 36.3636 27.4605 38.419L31.2952 31.3042Z" fill="url(#paint3_linear)"/>
<defs>
<linearGradient id="paint0_linear" x1="24.735" y1="22.8191" x2="24.735" y2="38.5337" gradientUnits="userSpaceOnUse">
<stop stop-color="#7A0025"/>
<stop offset="1" stop-color="#780033"/>
</linearGradient>
<linearGradient id="paint1_linear" x1="24.735" y1="22.8191" x2="24.735" y2="38.5337" gradientUnits="userSpaceOnUse">
<stop stop-color="#7A0025"/>
<stop offset="1" stop-color="#780033"/>
</linearGradient>
<linearGradient id="paint2_linear" x1="22.1681" y1="11.0836" x2="22.1681" y2="43.9871" gradientUnits="userSpaceOnUse">
<stop stop-color="#FF004D"/>
<stop offset="1" stop-color="#77103C"/>
</linearGradient>
<linearGradient id="paint3_linear" x1="22.1681" y1="11.0836" x2="22.1681" y2="43.9871" gradientUnits="userSpaceOnUse">
<stop stop-color="#FF004D"/>
<stop offset="1" stop-color="#77103C"/>
</linearGradient>
</defs>
</svg>
