<svg fill="none" height="210" viewBox="0 0 211 210" width="211" xmlns="http://www.w3.org/2000/svg" xmlns:xlink="http://www.w3.org/1999/xlink"><mask id="a" height="103" maskUnits="userSpaceOnUse" width="127" x="42" y="43"><path clip-rule="evenodd" d="m42.4202 43.4766h126.0368v102.1854h-126.0368z" fill="#fff" fill-rule="evenodd"/></mask><path d="m0 .96875h210.75v209h-210.75z" fill="#000"/><g mask="url(#a)"><path clip-rule="evenodd" d="m57.1782 141.866c-3.7453-8.069-5.8373-17.071-5.8373-26.566 0-34.7085 27.9578-62.8454 62.4451-62.8454 19.204 0 36.382 8.7243 47.837 22.4488l6.834-5.7709c-13.092-15.6853-32.724-25.6559-54.671-25.6559-39.414 0-71.3658 32.1566-71.3658 71.8234 0 10.851 2.3907 21.14 6.6711 30.362z" fill="#fff" fill-rule="evenodd"/></g><g clip-rule="evenodd" fill="#fff" fill-rule="evenodd"><path d="m113.786 157.946c-23.4019 0-42.3732-19.093-42.3732-42.645 0-23.5523 18.9713-42.6453 42.3732-42.6453 13.031 0 24.686 5.9216 32.459 15.2347l6.836-5.7724c-9.41-11.2738-23.52-18.4403-39.295-18.4403-28.3287 0-51.2941 23.1126-51.2941 51.6233 0 28.511 22.9654 51.623 51.2941 51.623z"/><path d="m129.162 128.285c-3.682 4.411-9.203 7.216-15.376 7.216-11.085 0-20.0714-9.044-20.0714-20.2 0-11.157 8.9864-20.2008 20.0714-20.2008 6.173 0 11.694 2.805 15.376 7.2168l7.687-6.4923c-5.523-6.6172-13.804-10.8247-23.063-10.8247-16.6276 0-30.1073 13.5661-30.1073 30.301 0 16.734 13.4797 30.3 30.1073 30.3 8.486 0 16.148-3.535 21.62-9.219z"/></g></svg>