<?xml version="1.0" encoding="UTF-8"?>
<!DOCTYPE svg PUBLIC "-//W3C//DTD SVG 1.1//EN" "http://www.w3.org/Graphics/SVG/1.1/DTD/svg11.dtd">
<svg xmlns="http://www.w3.org/2000/svg" version="1.1" width="1604px" height="1604px" style="shape-rendering:geometricPrecision; text-rendering:geometricPrecision; image-rendering:optimizeQuality; fill-rule:evenodd; clip-rule:evenodd" xmlns:xlink="http://www.w3.org/1999/xlink">
<g><path style="opacity:1" fill="#6f6f70" d="M -0.5,-0.5 C 258.167,-0.5 516.833,-0.5 775.5,-0.5C 775.5,-0.166667 775.5,0.166667 775.5,0.5C 764.167,0.833333 752.833,1.16667 741.5,1.5C 494.833,1.5 248.167,1.5 1.5,1.5C 1.5,246.167 1.5,490.833 1.5,735.5C 1.22639,746.344 0.559728,757.01 -0.5,767.5C -0.5,511.5 -0.5,255.5 -0.5,-0.5 Z"/></g>
<g><path style="opacity:1" fill="#fefeff" d="M 741.5,1.5 C 544.41,19.0646 375.41,96.5646 234.5,234C 97.9801,373.238 20.3135,540.405 1.5,735.5C 1.5,490.833 1.5,246.167 1.5,1.5C 248.167,1.5 494.833,1.5 741.5,1.5 Z"/></g>
<g><path style="opacity:1" fill="#fefeff" d="M 855.5,1.5 C 1104.17,1.5 1352.83,1.5 1601.5,1.5C 1601.5,251.167 1601.5,500.833 1601.5,750.5C 1598.15,707.569 1591.99,664.902 1583,622.5C 1577.24,598.744 1570.41,575.411 1562.5,552.5C 1558.13,537.388 1552.8,522.721 1546.5,508.5C 1528.54,461.239 1505.87,416.572 1478.5,374.5C 1465.38,352.389 1450.72,331.389 1434.5,311.5C 1413.69,284.015 1391.02,258.015 1366.5,233.5C 1349.46,216.789 1331.79,200.789 1313.5,185.5C 1293.43,168.627 1272.43,152.961 1250.5,138.5C 1234.55,126.849 1217.88,116.182 1200.5,106.5C 1166.23,87.3679 1130.9,70.3679 1094.5,55.5C 1058.94,41.7569 1022.6,30.4235 985.5,21.5C 969.716,17.4768 953.716,14.4768 937.5,12.5C 910.381,7.19346 883.047,3.52679 855.5,1.5 Z"/></g>
<g><path style="opacity:1" fill="#3d01fe" d="M 775.5,0.5 C 784.833,0.5 794.167,0.5 803.5,0.5C 798.349,1.32669 793.016,1.82669 787.5,2C 787.598,32.4525 787.932,62.9525 788.5,93.5C 772.117,94.2113 755.784,95.3779 739.5,97C 558.333,278.167 377.167,459.333 196,640.5C 195.849,644.913 196.516,649.246 198,653.5C 251.307,851.062 304.14,1048.73 356.5,1246.5C 500.223,1284.63 643.889,1322.96 787.5,1361.5C 787.616,1393.61 787.95,1425.44 788.5,1457C 787.552,1457.48 786.552,1457.65 785.5,1457.5C 637.047,1418.14 488.713,1378.64 340.5,1339C 469.131,1447.59 618.131,1504.42 787.5,1509.5C 788.598,1539.72 788.598,1569.88 787.5,1600C 788.253,1601.49 789.086,1601.65 790,1600.5C 793.27,1601.13 796.437,1601.8 799.5,1602.5C 794.833,1602.5 790.167,1602.5 785.5,1602.5C 770.835,1602.11 756.168,1601.78 741.5,1601.5C 544.398,1583.93 375.398,1506.43 234.5,1369C 96.728,1228.03 19.0613,1058.86 1.5,861.5C 1.31622,850.318 0.649554,839.318 -0.5,828.5C -0.5,808.167 -0.5,787.833 -0.5,767.5C 0.559728,757.01 1.22639,746.344 1.5,735.5C 20.3135,540.405 97.9801,373.238 234.5,234C 375.41,96.5646 544.41,19.0646 741.5,1.5C 752.833,1.16667 764.167,0.833333 775.5,0.5 Z"/></g>
<g><path style="opacity:1" fill="#5a0bff" d="M 937.5,12.5 C 953.716,14.4768 969.716,17.4768 985.5,21.5C 985.937,23.0744 986.937,24.2411 988.5,25C 987.167,27 987.167,29 988.5,31C 987.377,32.0437 986.044,32.7104 984.5,33C 985,33.5 985.5,34 986,34.5C 986.167,48.1667 986.333,61.8333 986.5,75.5C 986.483,89.7216 985.816,103.722 984.5,117.5C 983.761,117.369 983.094,117.536 982.5,118C 967.632,133.035 952.632,147.869 937.5,162.5C 937.5,112.5 937.5,62.5 937.5,12.5 Z"/></g>
<g><path style="opacity:1" fill="#650fff" d="M 985.5,21.5 C 1022.6,30.4235 1058.94,41.7569 1094.5,55.5C 1095.5,89.1642 1095.83,122.664 1095.5,156C 1094.91,156.464 1094.24,156.631 1093.5,156.5C 1057.88,141.296 1021.55,128.296 984.5,117.5C 985.816,103.722 986.483,89.7216 986.5,75.5C 986.333,61.8333 986.167,48.1667 986,34.5C 985.5,34 985,33.5 984.5,33C 986.044,32.7104 987.377,32.0437 988.5,31C 987.167,29 987.167,27 988.5,25C 986.937,24.2411 985.937,23.0744 985.5,21.5 Z"/></g>
<g><path style="opacity:1" fill="#7214ff" d="M 1094.5,55.5 C 1130.9,70.3679 1166.23,87.3679 1200.5,106.5C 1200.74,143.455 1200.41,180.121 1199.5,216.5C 1165.72,193.939 1130.39,173.939 1093.5,156.5C 1094.24,156.631 1094.91,156.464 1095.5,156C 1095.83,122.664 1095.5,89.1642 1094.5,55.5 Z"/></g>
<g><path style="opacity:1" fill="#fefeff" d="M 788.5,93.5 C 815.905,93.4426 843.238,94.776 870.5,97.5C 857.812,109.521 845.479,121.854 833.5,134.5C 801.833,165.5 770.5,196.833 739.5,228.5C 598.868,368.632 458.368,508.965 318,649.5C 302.889,665.967 299.555,684.634 308,705.5C 347.688,854.254 387.688,1002.92 428,1151.5C 435.048,1165.45 446.214,1174.29 461.5,1178C 569.432,1207.15 677.432,1235.98 785.5,1264.5C 818.909,1274.07 852.576,1283.07 886.5,1291.5C 899.535,1297.11 913.201,1299.28 927.5,1298C 937.113,1296.03 945.447,1291.69 952.5,1285C 963.702,1273.97 974.702,1262.8 985.5,1251.5C 1003.5,1234.17 1021.17,1216.5 1038.5,1198.5C 1057.5,1180.17 1076.17,1161.5 1094.5,1142.5C 1112.17,1125.5 1129.5,1108.17 1146.5,1090.5C 1164.83,1072.83 1182.83,1054.83 1200.5,1036.5C 1217.5,1020.17 1234.17,1003.5 1250.5,986.5C 1271.17,966.5 1291.5,946.167 1311.5,925.5C 1330.47,906.193 1349.47,886.86 1368.5,867.5C 1386.83,849.833 1404.83,831.833 1422.5,813.5C 1441.5,795.167 1460.17,776.5 1478.5,757.5C 1487.47,749.036 1496.3,740.369 1505,731.5C 1507.9,753.722 1509.06,776.056 1508.5,798.5C 1508.76,819.88 1507.92,841.214 1506,862.5C 1496.3,872.035 1486.8,881.702 1477.5,891.5C 1458.17,910.167 1439.17,929.167 1420.5,948.5C 1401.83,966.5 1383.5,984.833 1365.5,1003.5C 1347.5,1020.83 1329.83,1038.5 1312.5,1056.5C 1272.83,1095.5 1233.5,1134.83 1194.5,1174.5C 1175.5,1192.83 1156.83,1211.5 1138.5,1230.5C 1122.83,1245.5 1107.5,1260.83 1092.5,1276.5C 1072.5,1295.83 1052.83,1315.5 1033.5,1335.5C 1016.5,1351.83 999.833,1368.5 983.5,1385.5C 975.792,1393.21 967.792,1400.54 959.5,1407.5C 930.815,1399.83 902.148,1392.16 873.5,1384.5C 844.833,1376.83 816.167,1369.17 787.5,1361.5C 643.889,1322.96 500.223,1284.63 356.5,1246.5C 304.14,1048.73 251.307,851.062 198,653.5C 196.516,649.246 195.849,644.913 196,640.5C 377.167,459.333 558.333,278.167 739.5,97C 755.784,95.3779 772.117,94.2113 788.5,93.5 Z"/></g>
<g><path style="opacity:1" fill="#4f07fe" d="M 803.5,0.5 C 820.847,0.34587 838.18,0.679203 855.5,1.5C 883.047,3.52679 910.381,7.19346 937.5,12.5C 937.5,62.5 937.5,112.5 937.5,162.5C 903.5,197.167 869.167,231.5 834.5,265.5C 834.832,221.663 834.499,177.997 833.5,134.5C 845.479,121.854 857.812,109.521 870.5,97.5C 843.238,94.776 815.905,93.4426 788.5,93.5C 787.932,62.9525 787.598,32.4525 787.5,2C 793.016,1.82669 798.349,1.32669 803.5,0.5 Z"/></g>
<g><path style="opacity:1" fill="#7a17ff" d="M 1200.5,106.5 C 1217.88,116.182 1234.55,126.849 1250.5,138.5C 1250.83,177.333 1250.83,216 1250.5,254.5C 1233.64,241.578 1216.64,228.911 1199.5,216.5C 1200.41,180.121 1200.74,143.455 1200.5,106.5 Z"/></g>
<g><path style="opacity:1" fill="#fefeff" d="M 984.5,117.5 C 1021.55,128.296 1057.88,141.296 1093.5,156.5C 1130.39,173.939 1165.72,193.939 1199.5,216.5C 1216.64,228.911 1233.64,241.578 1250.5,254.5C 1259.97,263.135 1269.64,271.635 1279.5,280C 1290.37,291.035 1301.37,301.869 1312.5,312.5C 1330.95,332.603 1348.61,353.27 1365.5,374.5C 1390.5,407.818 1412.5,443.151 1431.5,480.5C 1449.96,516.877 1465.29,554.544 1477.5,593.5C 1480.78,602.286 1482.95,611.286 1484,620.5C 1481.63,622.703 1479.46,625.037 1477.5,627.5C 1458.17,646.167 1439.17,665.167 1420.5,684.5C 1401.83,702.5 1383.5,720.833 1365.5,739.5C 1346.83,757.5 1328.5,775.833 1310.5,794.5C 1289.5,814.833 1268.83,835.5 1248.5,856.5C 1230.17,874.167 1212.17,892.167 1194.5,910.5C 1177.83,926.5 1161.5,942.833 1145.5,959.5C 1127.5,976.833 1109.83,994.5 1092.5,1012.5C 1073.83,1030.5 1055.5,1048.83 1037.5,1067.5C 1019.17,1085.17 1001.17,1103.17 983.5,1121.5C 957.368,1147.13 931.368,1172.97 905.5,1199C 899.986,1198.78 894.653,1197.61 889.5,1195.5C 855.762,1186.7 822.095,1177.7 788.5,1168.5C 747.33,1157.79 706.33,1146.63 665.5,1135C 722.035,1078.63 778.368,1022.13 834.5,965.5C 869.167,931.5 903.5,897.167 937.5,862.5C 971.5,829.167 1005.17,795.5 1038.5,761.5C 1057.5,743.167 1076.17,724.5 1094.5,705.5C 1114.8,685.702 1134.97,665.702 1155,645.5C 1171.63,619.533 1168.13,596.7 1144.5,577C 1130.12,568.647 1115.12,567.314 1099.5,573C 1096.76,574.026 1094.43,575.526 1092.5,577.5C 1073.53,594.803 1055.2,612.803 1037.5,631.5C 1003.5,664.833 969.833,698.5 936.5,732.5C 901.833,766.5 867.5,800.833 833.5,835.5C 742.701,925.799 652.035,1016.3 561.5,1107C 544.08,1103.14 526.747,1098.64 509.5,1093.5C 504.2,1075.97 499.7,1058.3 496,1040.5C 609.035,927.632 721.868,814.632 834.5,701.5C 869.167,667.5 903.5,633.167 937.5,598.5C 966.465,570.035 995.299,541.368 1024,512.5C 1040.02,484.915 1035.18,461.749 1009.5,443C 991.329,434.551 973.996,435.884 957.5,447C 950.297,454.035 943.297,461.202 936.5,468.5C 901.833,502.5 867.5,536.833 833.5,571.5C 711.701,692.799 590.035,814.299 468.5,936C 467.4,936.432 466.733,935.932 466.5,934.5C 445.822,856.79 424.989,779.123 404,701.5C 403.333,699.833 403.333,698.167 404,696.5C 516.701,583.965 629.201,471.299 741.5,358.5C 772.833,327.833 803.833,296.833 834.5,265.5C 869.167,231.5 903.5,197.167 937.5,162.5C 952.632,147.869 967.632,133.035 982.5,118C 983.094,117.536 983.761,117.369 984.5,117.5 Z"/></g>
<g><path style="opacity:1" fill="#fdfcff" d="M 568.5,132.5 C 569.552,132.351 570.552,132.517 571.5,133C 425.653,279.014 279.653,424.847 133.5,570.5C 133.167,570.167 132.833,569.833 132.5,569.5C 199.542,383.626 321.875,247.46 499.5,161C 522.317,150.791 545.317,141.291 568.5,132.5 Z"/></g>
<g><path style="opacity:1" fill="#811aff" d="M 1250.5,138.5 C 1272.43,152.961 1293.43,168.627 1313.5,185.5C 1313.83,228.003 1313.5,270.337 1312.5,312.5C 1301.37,301.869 1290.37,291.035 1279.5,280C 1269.64,271.635 1259.97,263.135 1250.5,254.5C 1250.83,216 1250.83,177.333 1250.5,138.5 Z"/></g>
<g><path style="opacity:1" fill="#4505ff" d="M 833.5,134.5 C 834.499,177.997 834.832,221.663 834.5,265.5C 803.833,296.833 772.833,327.833 741.5,358.5C 740.236,356.098 740.903,354.598 743.5,354C 742.167,312 742.167,270 743.5,228C 742.181,227.805 740.847,227.972 739.5,228.5C 770.5,196.833 801.833,165.5 833.5,134.5 Z"/></g>
<g><path style="opacity:1" fill="#861cff" d="M 1313.5,185.5 C 1331.79,200.789 1349.46,216.789 1366.5,233.5C 1366.48,235.629 1367.15,237.462 1368.5,239C 1367.17,283.667 1367.17,328.333 1368.5,373C 1367.76,374.039 1366.76,374.539 1365.5,374.5C 1348.61,353.27 1330.95,332.603 1312.5,312.5C 1313.5,270.337 1313.83,228.003 1313.5,185.5 Z"/></g>
<g><path style="opacity:1" fill="#3e01ff" d="M 741.5,358.5 C 629.201,471.299 516.701,583.965 404,696.5C 403.333,698.167 403.333,699.833 404,701.5C 424.989,779.123 445.822,856.79 466.5,934.5C 466.733,935.932 467.4,936.432 468.5,936C 590.035,814.299 711.701,692.799 833.5,571.5C 834.499,614.663 834.832,657.997 834.5,701.5C 721.868,814.632 609.035,927.632 496,1040.5C 499.7,1058.3 504.2,1075.97 509.5,1093.5C 526.747,1098.64 544.08,1103.14 561.5,1107C 652.035,1016.3 742.701,925.799 833.5,835.5C 834.499,878.663 834.832,921.997 834.5,965.5C 778.368,1022.13 722.035,1078.63 665.5,1135C 706.33,1146.63 747.33,1157.79 788.5,1168.5C 787.402,1200.05 787.402,1231.55 788.5,1263C 787.756,1264.04 786.756,1264.54 785.5,1264.5C 677.432,1235.98 569.432,1207.15 461.5,1178C 446.214,1174.29 435.048,1165.45 428,1151.5C 387.688,1002.92 347.688,854.254 308,705.5C 299.555,684.634 302.889,665.967 318,649.5C 458.368,508.965 598.868,368.632 739.5,228.5C 740.847,227.972 742.181,227.805 743.5,228C 742.167,270 742.167,312 743.5,354C 740.903,354.598 740.236,356.098 741.5,358.5 Z"/></g>
<g><path style="opacity:1" fill="#8d1fff" d="M 1366.5,233.5 C 1391.02,258.015 1413.69,284.015 1434.5,311.5C 1433.83,367.501 1433.83,423.334 1434.5,479C 1433.76,480.039 1432.76,480.539 1431.5,480.5C 1412.5,443.151 1390.5,407.818 1365.5,374.5C 1366.76,374.539 1367.76,374.039 1368.5,373C 1367.17,328.333 1367.17,283.667 1368.5,239C 1367.15,237.462 1366.48,235.629 1366.5,233.5 Z"/></g>
<g><path style="opacity:1" fill="#9321ff" d="M 1434.5,311.5 C 1450.72,331.389 1465.38,352.389 1478.5,374.5C 1478.83,447.669 1478.5,520.669 1477.5,593.5C 1465.29,554.544 1449.96,516.877 1431.5,480.5C 1432.76,480.539 1433.76,480.039 1434.5,479C 1433.83,423.334 1433.83,367.501 1434.5,311.5 Z"/></g>
<g><path style="opacity:1" fill="#9923ff" d="M 1478.5,374.5 C 1505.87,416.572 1528.54,461.239 1546.5,508.5C 1546.5,703.833 1546.5,899.167 1546.5,1094.5C 1528.54,1141.76 1505.87,1186.43 1478.5,1228.5C 1478.83,1116 1478.5,1003.67 1477.5,891.5C 1486.8,881.702 1496.3,872.035 1506,862.5C 1507.92,841.214 1508.76,819.88 1508.5,798.5C 1509.06,776.056 1507.9,753.722 1505,731.5C 1496.3,740.369 1487.47,749.036 1478.5,757.5C 1478.83,713.997 1478.5,670.663 1477.5,627.5C 1479.46,625.037 1481.63,622.703 1484,620.5C 1482.95,611.286 1480.78,602.286 1477.5,593.5C 1478.5,520.669 1478.83,447.669 1478.5,374.5 Z"/></g>
<g><path style="opacity:1" fill="#5c0bff" d="M 937.5,598.5 C 937.832,554.997 937.499,511.663 936.5,468.5C 943.297,461.202 950.297,454.035 957.5,447C 973.996,435.884 991.329,434.551 1009.5,443C 1035.18,461.749 1040.02,484.915 1024,512.5C 995.299,541.368 966.465,570.035 937.5,598.5 Z"/></g>
<g><path style="opacity:1" fill="#9d25ff" d="M 1546.5,508.5 C 1552.8,522.721 1558.13,537.388 1562.5,552.5C 1562.41,555.359 1562.07,557.859 1561.5,560C 1562,560.5 1562.5,561 1563,561.5C 1562.17,567.769 1564.01,572.935 1568.5,577C 1567.17,719 1567.17,861 1568.5,1003C 1566.17,1002 1563.83,1001 1561.5,1000C 1562,1000.5 1562.5,1001 1563,1001.5C 1563.17,1006.5 1563.33,1011.5 1563.5,1016.5C 1563.47,1021.92 1562.8,1027.08 1561.5,1032C 1563.05,1033.82 1563.71,1035.99 1563.5,1038.5C 1563.39,1040.64 1562.72,1042.47 1561.5,1044C 1562.38,1044.71 1563.05,1045.54 1563.5,1046.5C 1559,1063.01 1553.33,1079.01 1546.5,1094.5C 1546.5,899.167 1546.5,703.833 1546.5,508.5 Z"/></g>
<g><path style="opacity:1" fill="#5006ff" d="M 936.5,468.5 C 937.499,511.663 937.832,554.997 937.5,598.5C 903.5,633.167 869.167,667.5 834.5,701.5C 834.832,657.997 834.499,614.663 833.5,571.5C 867.5,536.833 901.833,502.5 936.5,468.5 Z"/></g>
<g><path style="opacity:1" fill="#6e13ff" d="M 1094.5,705.5 C 1093.4,663.285 1093.4,621.118 1094.5,579C 1093.96,578.283 1093.29,577.783 1092.5,577.5C 1094.43,575.526 1096.76,574.026 1099.5,573C 1115.12,567.314 1130.12,568.647 1144.5,577C 1168.13,596.7 1171.63,619.533 1155,645.5C 1134.97,665.702 1114.8,685.702 1094.5,705.5 Z"/></g>
<g><path style="opacity:1" fill="#a028fe" d="M 1562.5,552.5 C 1570.41,575.411 1577.24,598.744 1583,622.5C 1591.99,664.902 1598.15,707.569 1601.5,750.5C 1602.75,784.831 1602.75,819.164 1601.5,853.5C 1597.58,901.269 1590.08,948.603 1579,995.5C 1574.5,1012.81 1569.34,1029.81 1563.5,1046.5C 1563.05,1045.54 1562.38,1044.71 1561.5,1044C 1562.72,1042.47 1563.39,1040.64 1563.5,1038.5C 1563.71,1035.99 1563.05,1033.82 1561.5,1032C 1562.8,1027.08 1563.47,1021.92 1563.5,1016.5C 1563.33,1011.5 1563.17,1006.5 1563,1001.5C 1562.5,1001 1562,1000.5 1561.5,1000C 1563.83,1001 1566.17,1002 1568.5,1003C 1567.17,861 1567.17,719 1568.5,577C 1564.01,572.935 1562.17,567.769 1563,561.5C 1562.5,561 1562,560.5 1561.5,560C 1562.07,557.859 1562.41,555.359 1562.5,552.5 Z"/></g>
<g><path style="opacity:1" fill="#670fff" d="M 1092.5,577.5 C 1093.29,577.783 1093.96,578.283 1094.5,579C 1093.4,621.118 1093.4,663.285 1094.5,705.5C 1076.17,724.5 1057.5,743.167 1038.5,761.5C 1038.83,717.997 1038.5,674.663 1037.5,631.5C 1055.2,612.803 1073.53,594.803 1092.5,577.5 Z"/></g>
<g><path style="opacity:1" fill="#9220ff" d="M 1477.5,627.5 C 1478.5,670.663 1478.83,713.997 1478.5,757.5C 1460.17,776.5 1441.5,795.167 1422.5,813.5C 1422.4,771.118 1422.4,728.618 1422.5,686C 1421.96,685.283 1421.29,684.783 1420.5,684.5C 1439.17,665.167 1458.17,646.167 1477.5,627.5 Z"/></g>
<g><path style="opacity:1" fill="#fefdff" d="M 105.5,673.5 C 157.104,862.907 208.271,1052.57 259,1242.5C 260.829,1248.81 262.163,1255.14 263,1261.5C 130.741,1101.57 76.0741,917.899 99,710.5C 100.726,698.042 102.893,685.709 105.5,673.5 Z"/></g>
<g><path style="opacity:1" fill="#8c1eff" d="M 1420.5,684.5 C 1421.29,684.783 1421.96,685.283 1422.5,686C 1422.4,728.618 1422.4,771.118 1422.5,813.5C 1404.83,831.833 1386.83,849.833 1368.5,867.5C 1367.4,825.285 1367.4,783.118 1368.5,741C 1367.76,739.961 1366.76,739.461 1365.5,739.5C 1383.5,720.833 1401.83,702.5 1420.5,684.5 Z"/></g>
<g><path style="opacity:1" fill="#5c0bff" d="M 1037.5,631.5 C 1038.5,674.663 1038.83,717.997 1038.5,761.5C 1005.17,795.5 971.5,829.167 937.5,862.5C 937.832,818.997 937.499,775.663 936.5,732.5C 969.833,698.5 1003.5,664.833 1037.5,631.5 Z"/></g>
<g><path style="opacity:1" fill="#861bff" d="M 1365.5,739.5 C 1366.76,739.461 1367.76,739.961 1368.5,741C 1367.4,783.118 1367.4,825.285 1368.5,867.5C 1349.47,886.86 1330.47,906.193 1311.5,925.5C 1311.83,881.663 1311.5,837.997 1310.5,794.5C 1328.5,775.833 1346.83,757.5 1365.5,739.5 Z"/></g>
<g><path style="opacity:1" fill="#5006ff" d="M 936.5,732.5 C 937.499,775.663 937.832,818.997 937.5,862.5C 903.5,897.167 869.167,931.5 834.5,965.5C 834.832,921.997 834.499,878.663 833.5,835.5C 867.5,800.833 901.833,766.5 936.5,732.5 Z"/></g>
<g><path style="opacity:1" fill="#6f6f70" d="M 775.5,0.5 C 775.5,0.166667 775.5,-0.166667 775.5,-0.5C 1051.5,-0.5 1327.5,-0.5 1603.5,-0.5C 1603.5,534.167 1603.5,1068.83 1603.5,1603.5C 1330.83,1603.5 1058.17,1603.5 785.5,1603.5C 785.5,1603.17 785.5,1602.83 785.5,1602.5C 790.167,1602.5 794.833,1602.5 799.5,1602.5C 818.51,1602.59 837.51,1602.26 856.5,1601.5C 1104.83,1601.5 1353.17,1601.5 1601.5,1601.5C 1601.5,1352.17 1601.5,1102.83 1601.5,853.5C 1602.75,819.164 1602.75,784.831 1601.5,750.5C 1601.5,500.833 1601.5,251.167 1601.5,1.5C 1352.83,1.5 1104.17,1.5 855.5,1.5C 838.18,0.679203 820.847,0.34587 803.5,0.5C 794.167,0.5 784.833,0.5 775.5,0.5 Z"/></g>
<g><path style="opacity:1" fill="#801aff" d="M 1310.5,794.5 C 1311.5,837.997 1311.83,881.663 1311.5,925.5C 1291.5,946.167 1271.17,966.5 1250.5,986.5C 1250.59,985.504 1250.25,984.671 1249.5,984C 1250.17,983.333 1250.83,982.667 1251.5,982C 1251.5,940.667 1251.5,899.333 1251.5,858C 1250.76,856.961 1249.76,856.461 1248.5,856.5C 1268.83,835.5 1289.5,814.833 1310.5,794.5 Z"/></g>
<g><path style="opacity:1" fill="#6f6f70" d="M -0.5,828.5 C 0.649554,839.318 1.31622,850.318 1.5,861.5C 1.5,1108.17 1.5,1354.83 1.5,1601.5C 248.167,1601.5 494.833,1601.5 741.5,1601.5C 756.168,1601.78 770.835,1602.11 785.5,1602.5C 785.5,1602.83 785.5,1603.17 785.5,1603.5C 523.5,1603.5 261.5,1603.5 -0.5,1603.5C -0.5,1345.17 -0.5,1086.83 -0.5,828.5 Z"/></g>
<g><path style="opacity:1" fill="#7a18ff" d="M 1248.5,856.5 C 1249.76,856.461 1250.76,856.961 1251.5,858C 1251.5,899.333 1251.5,940.667 1251.5,982C 1250.83,982.667 1250.17,983.333 1249.5,984C 1250.25,984.671 1250.59,985.504 1250.5,986.5C 1234.17,1003.5 1217.5,1020.17 1200.5,1036.5C 1200.26,993.618 1200.26,950.785 1200.5,908C 1198.46,908.483 1196.46,909.316 1194.5,910.5C 1212.17,892.167 1230.17,874.167 1248.5,856.5 Z"/></g>
<g><path style="opacity:1" fill="#fefeff" d="M 1601.5,853.5 C 1601.5,1102.83 1601.5,1352.17 1601.5,1601.5C 1353.17,1601.5 1104.83,1601.5 856.5,1601.5C 862.301,1600.32 868.301,1599.65 874.5,1599.5C 911.899,1595.82 948.899,1589.82 985.5,1581.5C 1001.91,1577.47 1018.24,1573.13 1034.5,1568.5C 1054.38,1562.09 1074.05,1555.09 1093.5,1547.5C 1130.21,1533.14 1165.55,1516.14 1199.5,1496.5C 1216.87,1487.15 1233.54,1476.82 1249.5,1465.5C 1271.01,1451.32 1291.68,1435.99 1311.5,1419.5C 1330.79,1403.21 1349.46,1386.21 1367.5,1368.5C 1386.91,1349.09 1405.25,1328.75 1422.5,1307.5C 1443.38,1282.76 1462.04,1256.42 1478.5,1228.5C 1505.87,1186.43 1528.54,1141.76 1546.5,1094.5C 1553.33,1079.01 1559,1063.01 1563.5,1046.5C 1569.34,1029.81 1574.5,1012.81 1579,995.5C 1590.08,948.603 1597.58,901.269 1601.5,853.5 Z"/></g>
<g><path style="opacity:1" fill="#fefeff" d="M 1.5,861.5 C 19.0613,1058.86 96.728,1228.03 234.5,1369C 375.398,1506.43 544.398,1583.93 741.5,1601.5C 494.833,1601.5 248.167,1601.5 1.5,1601.5C 1.5,1354.83 1.5,1108.17 1.5,861.5 Z"/></g>
<g><path style="opacity:1" fill="#9221ff" d="M 1477.5,891.5 C 1478.5,1003.67 1478.83,1116 1478.5,1228.5C 1462.04,1256.42 1443.38,1282.76 1422.5,1307.5C 1421.83,1252.83 1421.83,1198.33 1422.5,1144C 1421.91,1143.54 1421.24,1143.37 1420.5,1143.5C 1440.81,1107.39 1457.31,1069.72 1470,1030.5C 1454.3,1046.37 1438.47,1062.04 1422.5,1077.5C 1422.4,1035.12 1422.4,992.618 1422.5,950C 1421.96,949.283 1421.29,948.783 1420.5,948.5C 1439.17,929.167 1458.17,910.167 1477.5,891.5 Z"/></g>
<g><path style="opacity:1" fill="#7416ff" d="M 1200.5,1036.5 C 1182.83,1054.83 1164.83,1072.83 1146.5,1090.5C 1146.83,1046.66 1146.5,1003 1145.5,959.5C 1161.5,942.833 1177.83,926.5 1194.5,910.5C 1196.46,909.316 1198.46,908.483 1200.5,908C 1200.26,950.785 1200.26,993.618 1200.5,1036.5 Z"/></g>
<g><path style="opacity:1" fill="#8c1dff" d="M 1420.5,948.5 C 1421.29,948.783 1421.96,949.283 1422.5,950C 1422.4,992.618 1422.4,1035.12 1422.5,1077.5C 1404.83,1095.83 1386.83,1113.83 1368.5,1131.5C 1367.4,1089.28 1367.4,1047.12 1368.5,1005C 1367.76,1003.96 1366.76,1003.46 1365.5,1003.5C 1383.5,984.833 1401.83,966.5 1420.5,948.5 Z"/></g>
<g><path style="opacity:1" fill="#6e14ff" d="M 1145.5,959.5 C 1146.5,1003 1146.83,1046.66 1146.5,1090.5C 1129.5,1108.17 1112.17,1125.5 1094.5,1142.5C 1094.59,1141.5 1094.25,1140.67 1093.5,1140C 1094.17,1139.33 1094.83,1138.67 1095.5,1138C 1095.5,1096.67 1095.5,1055.33 1095.5,1014C 1094.76,1012.96 1093.76,1012.46 1092.5,1012.5C 1109.83,994.5 1127.5,976.833 1145.5,959.5 Z"/></g>
<g><path style="opacity:1" fill="#861bff" d="M 1365.5,1003.5 C 1366.76,1003.46 1367.76,1003.96 1368.5,1005C 1367.4,1047.12 1367.4,1089.28 1368.5,1131.5C 1350.5,1150.17 1332.17,1168.5 1313.5,1186.5C 1313.83,1143 1313.5,1099.66 1312.5,1056.5C 1329.83,1038.5 1347.5,1020.83 1365.5,1003.5 Z"/></g>
<g><path style="opacity:1" fill="#6811ff" d="M 1092.5,1012.5 C 1093.76,1012.46 1094.76,1012.96 1095.5,1014C 1095.5,1055.33 1095.5,1096.67 1095.5,1138C 1094.83,1138.67 1094.17,1139.33 1093.5,1140C 1094.25,1140.67 1094.59,1141.5 1094.5,1142.5C 1076.17,1161.5 1057.5,1180.17 1038.5,1198.5C 1038.83,1154.66 1038.5,1111 1037.5,1067.5C 1055.5,1048.83 1073.83,1030.5 1092.5,1012.5 Z"/></g>
<g><path style="opacity:1" fill="#fefdff" d="M 1420.5,1143.5 C 1404.14,1173.18 1385.8,1201.51 1365.5,1228.5C 1348.29,1251.05 1329.96,1272.71 1310.5,1293.5C 1290.41,1313.26 1269.74,1332.26 1248.5,1350.5C 1230.66,1364.58 1212.33,1377.91 1193.5,1390.5C 1161.3,1411.68 1127.63,1430.34 1092.5,1446.5C 1072.8,1454.96 1052.8,1462.62 1032.5,1469.5C 1033.17,1468.5 1033.83,1467.5 1034.5,1466.5C 1054.83,1446.83 1074.83,1426.83 1094.5,1406.5C 1110.17,1391.5 1125.5,1376.17 1140.5,1360.5C 1159.5,1342.17 1178.17,1323.5 1196.5,1304.5C 1235.47,1265.19 1274.47,1225.86 1313.5,1186.5C 1332.17,1168.5 1350.5,1150.17 1368.5,1131.5C 1386.83,1113.83 1404.83,1095.83 1422.5,1077.5C 1438.47,1062.04 1454.3,1046.37 1470,1030.5C 1457.31,1069.72 1440.81,1107.39 1420.5,1143.5 Z"/></g>
<g><path style="opacity:1" fill="#610fff" d="M 1037.5,1067.5 C 1038.5,1111 1038.83,1154.66 1038.5,1198.5C 1021.17,1216.5 1003.5,1234.17 985.5,1251.5C 985.586,1250.5 985.252,1249.67 984.5,1249C 985.828,1228.05 986.494,1206.88 986.5,1185.5C 986.333,1164.5 986.167,1143.5 986,1122.5C 985.329,1121.75 984.496,1121.41 983.5,1121.5C 1001.17,1103.17 1019.17,1085.17 1037.5,1067.5 Z"/></g>
<g><path style="opacity:1" fill="#7c18ff" d="M 1312.5,1056.5 C 1313.5,1099.66 1313.83,1143 1313.5,1186.5C 1274.47,1225.86 1235.47,1265.19 1196.5,1304.5C 1195.95,1303.31 1195.62,1302.14 1195.5,1301C 1197.49,1259.05 1198.16,1216.89 1197.5,1174.5C 1196.5,1174.5 1195.5,1174.5 1194.5,1174.5C 1233.5,1134.83 1272.83,1095.5 1312.5,1056.5 Z"/></g>
<g><path style="opacity:1" fill="#590cff" d="M 983.5,1121.5 C 984.496,1121.41 985.329,1121.75 986,1122.5C 986.167,1143.5 986.333,1164.5 986.5,1185.5C 986.494,1206.88 985.828,1228.05 984.5,1249C 985.252,1249.67 985.586,1250.5 985.5,1251.5C 974.702,1262.8 963.702,1273.97 952.5,1285C 945.447,1291.69 937.113,1296.03 927.5,1298C 913.201,1299.28 899.535,1297.11 886.5,1291.5C 887.5,1291.5 888.5,1291.5 889.5,1291.5C 889.5,1259.5 889.5,1227.5 889.5,1195.5C 894.653,1197.61 899.986,1198.78 905.5,1199C 931.368,1172.97 957.368,1147.13 983.5,1121.5 Z"/></g>
<g><path style="opacity:1" fill="#8c1eff" d="M 1420.5,1143.5 C 1421.24,1143.37 1421.91,1143.54 1422.5,1144C 1421.83,1198.33 1421.83,1252.83 1422.5,1307.5C 1405.25,1328.75 1386.91,1349.09 1367.5,1368.5C 1366.29,1367.12 1366.63,1365.95 1368.5,1365C 1368.5,1319.67 1368.5,1274.33 1368.5,1229C 1367.55,1228.52 1366.55,1228.35 1365.5,1228.5C 1385.8,1201.51 1404.14,1173.18 1420.5,1143.5 Z"/></g>
<g><path style="opacity:1" fill="#7415ff" d="M 1194.5,1174.5 C 1195.5,1174.5 1196.5,1174.5 1197.5,1174.5C 1198.16,1216.89 1197.49,1259.05 1195.5,1301C 1195.62,1302.14 1195.95,1303.31 1196.5,1304.5C 1178.17,1323.5 1159.5,1342.17 1140.5,1360.5C 1140.59,1359.5 1140.25,1358.67 1139.5,1358C 1140.83,1337.38 1141.49,1316.55 1141.5,1295.5C 1141.33,1274.83 1141.17,1254.17 1141,1233.5C 1140.5,1233 1140,1232.5 1139.5,1232C 1141.39,1231.84 1142.89,1232.67 1144,1234.5C 1144.67,1231.83 1144.67,1229.17 1144,1226.5C 1142.55,1228.46 1140.72,1229.8 1138.5,1230.5C 1156.83,1211.5 1175.5,1192.83 1194.5,1174.5 Z"/></g>
<g><path style="opacity:1" fill="#4c07ff" d="M 788.5,1168.5 C 822.095,1177.7 855.762,1186.7 889.5,1195.5C 889.5,1227.5 889.5,1259.5 889.5,1291.5C 888.5,1291.5 887.5,1291.5 886.5,1291.5C 852.576,1283.07 818.909,1274.07 785.5,1264.5C 786.756,1264.54 787.756,1264.04 788.5,1263C 787.402,1231.55 787.402,1200.05 788.5,1168.5 Z"/></g>
<g><path style="opacity:1" fill="#861cff" d="M 1365.5,1228.5 C 1366.55,1228.35 1367.55,1228.52 1368.5,1229C 1368.5,1274.33 1368.5,1319.67 1368.5,1365C 1366.63,1365.95 1366.29,1367.12 1367.5,1368.5C 1349.46,1386.21 1330.79,1403.21 1311.5,1419.5C 1311.83,1377.33 1311.5,1335.33 1310.5,1293.5C 1329.96,1272.71 1348.29,1251.05 1365.5,1228.5 Z"/></g>
<g><path style="opacity:1" fill="#6e13ff" d="M 1140.5,1360.5 C 1125.5,1376.17 1110.17,1391.5 1094.5,1406.5C 1094.59,1405.5 1094.25,1404.67 1093.5,1404C 1094.17,1403.33 1094.83,1402.67 1095.5,1402C 1095.5,1360.67 1095.5,1319.33 1095.5,1278C 1094.76,1276.96 1093.76,1276.46 1092.5,1276.5C 1107.5,1260.83 1122.83,1245.5 1138.5,1230.5C 1140.72,1229.8 1142.55,1228.46 1144,1226.5C 1144.67,1229.17 1144.67,1231.83 1144,1234.5C 1142.89,1232.67 1141.39,1231.84 1139.5,1232C 1140,1232.5 1140.5,1233 1141,1233.5C 1141.17,1254.17 1141.33,1274.83 1141.5,1295.5C 1141.49,1316.55 1140.83,1337.38 1139.5,1358C 1140.25,1358.67 1140.59,1359.5 1140.5,1360.5 Z"/></g>
<g><path style="opacity:1" fill="#6711ff" d="M 1092.5,1276.5 C 1093.76,1276.46 1094.76,1276.96 1095.5,1278C 1095.5,1319.33 1095.5,1360.67 1095.5,1402C 1094.83,1402.67 1094.17,1403.33 1093.5,1404C 1094.25,1404.67 1094.59,1405.5 1094.5,1406.5C 1074.83,1426.83 1054.83,1446.83 1034.5,1466.5C 1034.83,1422.66 1034.5,1379 1033.5,1335.5C 1052.83,1315.5 1072.5,1295.83 1092.5,1276.5 Z"/></g>
<g><path style="opacity:1" fill="#7f19ff" d="M 1310.5,1293.5 C 1311.5,1335.33 1311.83,1377.33 1311.5,1419.5C 1291.68,1435.99 1271.01,1451.32 1249.5,1465.5C 1249.51,1463.98 1250.18,1462.82 1251.5,1462C 1250.17,1425.33 1250.17,1388.67 1251.5,1352C 1250.76,1350.96 1249.76,1350.46 1248.5,1350.5C 1269.74,1332.26 1290.41,1313.26 1310.5,1293.5 Z"/></g>
<g><path style="opacity:1" fill="#fefeff" d="M 785.5,1457.5 C 813.917,1465.77 842.584,1473.44 871.5,1480.5C 891.005,1486.13 910.672,1491.63 930.5,1497C 909.07,1500.52 887.737,1503.69 866.5,1506.5C 840.196,1508.23 813.863,1509.23 787.5,1509.5C 618.131,1504.42 469.131,1447.59 340.5,1339C 488.713,1378.64 637.047,1418.14 785.5,1457.5 Z"/></g>
<g><path style="opacity:1" fill="#7a17ff" d="M 1248.5,1350.5 C 1249.76,1350.46 1250.76,1350.96 1251.5,1352C 1250.17,1388.67 1250.17,1425.33 1251.5,1462C 1250.18,1462.82 1249.51,1463.98 1249.5,1465.5C 1233.54,1476.82 1216.87,1487.15 1199.5,1496.5C 1200.5,1462.84 1200.83,1429.34 1200.5,1396C 1198.56,1393.55 1196.23,1391.71 1193.5,1390.5C 1212.33,1377.91 1230.66,1364.58 1248.5,1350.5 Z"/></g>
<g><path style="opacity:1" fill="#600cff" d="M 1033.5,1335.5 C 1034.5,1379 1034.83,1422.66 1034.5,1466.5C 1033.83,1467.5 1033.17,1468.5 1032.5,1469.5C 1030.97,1469.52 1030.47,1470.18 1031,1471.5C 1032.01,1470.66 1033.18,1470.33 1034.5,1470.5C 1034.5,1503.17 1034.5,1535.83 1034.5,1568.5C 1018.24,1573.13 1001.91,1577.47 985.5,1581.5C 984.832,1516.17 984.832,1451 985.5,1386C 984.906,1385.54 984.239,1385.37 983.5,1385.5C 999.833,1368.5 1016.5,1351.83 1033.5,1335.5 Z"/></g>
<g><path style="opacity:1" fill="#4c06ff" d="M 787.5,1361.5 C 816.167,1369.17 844.833,1376.83 873.5,1384.5C 874.589,1386.12 876.256,1386.95 878.5,1387C 878.5,1417.67 878.5,1448.33 878.5,1479C 877.451,1479.49 876.451,1479.33 875.5,1478.5C 874.378,1479.63 873.044,1480.3 871.5,1480.5C 842.584,1473.44 813.917,1465.77 785.5,1457.5C 786.552,1457.65 787.552,1457.48 788.5,1457C 787.95,1425.44 787.616,1393.61 787.5,1361.5 Z"/></g>
<g><path style="opacity:1" fill="#560aff" d="M 873.5,1384.5 C 902.148,1392.16 930.815,1399.83 959.5,1407.5C 967.792,1400.54 975.792,1393.21 983.5,1385.5C 984.239,1385.37 984.906,1385.54 985.5,1386C 984.832,1451 984.832,1516.17 985.5,1581.5C 948.899,1589.82 911.899,1595.82 874.5,1599.5C 875.808,1598.77 877.142,1597.93 878.5,1597C 877.167,1568.33 877.167,1539.67 878.5,1511C 875.977,1510.48 873.977,1509.15 872.5,1507C 870.527,1506.5 868.527,1506.34 866.5,1506.5C 887.737,1503.69 909.07,1500.52 930.5,1497C 910.672,1491.63 891.005,1486.13 871.5,1480.5C 873.044,1480.3 874.378,1479.63 875.5,1478.5C 876.451,1479.33 877.451,1479.49 878.5,1479C 878.5,1448.33 878.5,1417.67 878.5,1387C 876.256,1386.95 874.589,1386.12 873.5,1384.5 Z"/></g>
<g><path style="opacity:1" fill="#7214ff" d="M 1193.5,1390.5 C 1196.23,1391.71 1198.56,1393.55 1200.5,1396C 1200.83,1429.34 1200.5,1462.84 1199.5,1496.5C 1165.55,1516.14 1130.21,1533.14 1093.5,1547.5C 1093.51,1545.98 1094.18,1544.82 1095.5,1544C 1095.5,1512 1095.5,1480 1095.5,1448C 1094.76,1446.96 1093.76,1446.46 1092.5,1446.5C 1127.63,1430.34 1161.3,1411.68 1193.5,1390.5 Z"/></g>
<g><path style="opacity:1" fill="#6710ff" d="M 1092.5,1446.5 C 1093.76,1446.46 1094.76,1446.96 1095.5,1448C 1095.5,1480 1095.5,1512 1095.5,1544C 1094.18,1544.82 1093.51,1545.98 1093.5,1547.5C 1074.05,1555.09 1054.38,1562.09 1034.5,1568.5C 1034.5,1535.83 1034.5,1503.17 1034.5,1470.5C 1033.18,1470.33 1032.01,1470.66 1031,1471.5C 1030.47,1470.18 1030.97,1469.52 1032.5,1469.5C 1052.8,1462.62 1072.8,1454.96 1092.5,1446.5 Z"/></g>
<g><path style="opacity:1" fill="#4905fe" d="M 866.5,1506.5 C 868.527,1506.34 870.527,1506.5 872.5,1507C 873.977,1509.15 875.977,1510.48 878.5,1511C 877.167,1539.67 877.167,1568.33 878.5,1597C 877.142,1597.93 875.808,1598.77 874.5,1599.5C 868.301,1599.65 862.301,1600.32 856.5,1601.5C 837.51,1602.26 818.51,1602.59 799.5,1602.5C 796.437,1601.8 793.27,1601.13 790,1600.5C 789.086,1601.65 788.253,1601.49 787.5,1600C 788.598,1569.88 788.598,1539.72 787.5,1509.5C 813.863,1509.23 840.196,1508.23 866.5,1506.5 Z"/></g>
</svg>
