<?xml version="1.0" encoding="utf-8"?>
<!-- Generator: Adobe Illustrator 25.1.0, SVG Export Plug-In . SVG Version: 6.00 Build 0)  -->
<svg version="1.1" id="Layer_1" xmlns="http://www.w3.org/2000/svg" xmlns:xlink="http://www.w3.org/1999/xlink" x="0px" y="0px"
	 viewBox="0 0 64 64" style="enable-background:new 0 0 64 64;" xml:space="preserve">
<style type="text/css">
	.st0{fill:#FFC500;}
</style>
<g>
	<path class="st0" d="M43.5,8c0-3.5,1.7-5.3,5.1-5.3h8.5c3,0,4.4,1,4.4,3c0,0.9-1.1,2.7-3.2,5.7c-1.3,1.8-1.9,2.9-1.9,3.1
		c0,0.4,0.6,1.1,1.8,1.8c2.7,1.8,4.1,4,4.1,6.5c0,3.7-2.7,6-8.1,6.9l-1.4,0.1c-1.6,0-2.4-0.8-2.4-2.3c0-1.4,0.9-2.1,2.8-2.2
		c2.8-0.1,4.2-1.1,4.2-3.2c0-1.1-1.3-2.8-4-5.1c-0.9-0.8-1.3-1.5-1.3-2.3c0-0.7,0.5-1.7,1.4-3c1.5-2,2.3-3.3,2.3-4
		c0-0.6-0.4-0.9-1.1-0.9h-4.6c-1.3,0-2,0.7-2,2.1v19.9c0,1.7-0.8,2.6-2.3,2.6c-1.5,0-2.3-0.9-2.3-2.6V8z M24.9,16.1H35
		c1,0,1.5-0.5,1.5-1.5v-1.6H24.9V16.1z M24.9,9.5h11.6V7.9c0-1-0.6-1.6-1.5-1.6h-8.5c-1,0-1.5,0.6-1.5,1.6V9.5z M22.6,39.8h17.7
		l1-3.6H21.8L22.6,39.8z M20.8,26V7.5c-0.1-3.2,1.5-4.8,4.8-4.8h10.3c3.3,0,4.9,1.6,4.8,4.8v7.1c0.1,3.2-1.4,4.8-4.6,4.8H24.9v5.9
		l8.9-1.8c-0.9-0.9-1.4-1.6-1.4-2.1c0-1.1,0.6-1.6,1.9-1.6c0.7,0,2.2,1.2,4.5,3.6l2,2c1.1,1.1,1.7,1.9,1.7,2.4c0,1.3-0.7,2-2.2,2
		c-0.8,0-1.9-0.9-3.4-2.8L36,26l-0.7,0.2c-3.5,1.1-7.9,2.3-13.2,3.5l-3,0.7c-1.3,0-1.9-0.7-1.9-2C17.1,27.2,18.3,26.4,20.8,26
		 M13,56.1v1.4c0,1.2,0.7,1.8,1.9,1.9h34.3c1.2,0,1.8-0.7,1.9-1.9v-1.4H13z M13,53h38v-1.2c0-1.2-0.7-1.8-1.9-1.9H14.9
		c-1.2,0-1.8,0.7-1.9,1.9V53z M13.6,62.7c-3.9,0-5.9-1.5-5.9-4.6V51c0-3,2-4.4,5.9-4.4h37c3.9,0,5.9,1.5,5.9,4.6v7.2
		c0,3-2,4.4-5.9,4.4H13.6z M7.9,16.8l-5.5-4.6c-1.3-1-2-1.9-2-2.6c0-1.3,0.7-1.9,2-1.9C3,7.7,3.8,8.2,5,9.1l2-3.4c1.7-3,3-4.4,4-4.4
		c1.4,0,2.2,0.6,2.2,1.9c0,0.9-1.9,3.6-5.7,8.1l0.2,0.1l2.8,2.4l2.8-3.7c1.3-1.9,2.4-2.8,3.2-2.8c1.3,0,2,0.6,2,1.9
		c0,0.6-1.1,2-3.2,4.3L9,20l0.2-0.1l5.9-0.8l0.3-0.1l0.3-1.2c0.3-1.6,1-2.4,2.2-2.4c1.3,0,1.9,0.6,1.9,1.8c0,2.6-1,5.2-3,7.9
		c-2,2.6-4.6,4.6-7.7,6c-3.1,1.3-5.1,2-6,2c-1.3,0-2-0.7-2-2.2c0-1.1,0.7-1.8,2.2-2.2c5.6-1,9.2-3.2,11-6.6l-10.6,2l-1.5,0.1
		c-1.1,0-1.7-0.6-1.7-1.9c0-1.2,0.7-1.8,2.2-1.9l2.2-0.1L7.9,16.8z M17.5,39.8l-0.9-3.6H8.1c-1.4,0-2.2-0.6-2.2-1.8
		c0-1.3,0.7-1.9,2.2-1.9H29v-2c0-1.6,0.9-2.4,2.7-2.4c1.8,0,2.7,0.8,2.7,2.4v2H56c1.4,0,2.2,0.6,2.2,1.9c0,1.2-0.7,1.8-2.2,1.8h-9.4
		l-1.1,3.6h16c1.4,0,2.2,0.6,2.2,1.9c0,1.3-0.7,1.9-2.2,1.9H2.4c-1.4,0-2.2-0.6-2.2-1.9c0-1.3,0.7-1.9,2.2-1.9H17.5z"/>
</g>
</svg>
