<?xml version="1.0" encoding="utf-8"?>
<!-- Generator: Adobe Illustrator 26.2.0, SVG Export Plug-In . SVG Version: 6.00 Build 0)  -->
<svg version="1.1" id="Layer_1" xmlns="http://www.w3.org/2000/svg" xmlns:xlink="http://www.w3.org/1999/xlink" x="0px" y="0px"
	 viewBox="0 0 390 447" style="enable-background:new 0 0 390 447;" xml:space="preserve">
<style type="text/css">
	.st0{clip-path:url(#SVGID_00000039126922273224394330000010860847477434208420_);}
	.st1{fill:#DC3734;}
	.st2{fill:#231F20;}
	.st3{fill:url(#SVGID_00000144340031172486601260000011623467686826409125_);}
	.st4{fill:#C6A06A;}
	.st5{fill:url(#SVGID_00000064329293600173786420000010183646267309803956_);}
	.st6{fill:url(#SVGID_00000021837844274501181150000010733808059135008422_);}
	.st7{fill:url(#SVGID_00000172434053929247247260000007450205325240582052_);}
</style>
<g>
	<defs>
		<rect id="SVGID_1_" x="0" y="33" width="389.9" height="446.5"/>
	</defs>
	<clipPath id="SVGID_00000008127103124242003260000011269447371589392012_">
		<use xlink:href="#SVGID_1_"  style="overflow:visible;"/>
	</clipPath>
	<g style="clip-path:url(#SVGID_00000008127103124242003260000011269447371589392012_);">
		<path class="st1" d="M194.7,479.3L194.7,479.3l-0.2,0.2L194.7,479.3z"/>
		<path class="st2" d="M194.9,479.1l-0.5,0.4l-0.1-0.1L194.9,479.1z"/>
		
			<linearGradient id="SVGID_00000150075253700258228350000003216281229813757619_" gradientUnits="userSpaceOnUse" x1="4.499817e-02" y1="220.0501" x2="389.955" y2="220.0501" gradientTransform="matrix(1 0 0 -1 0 448)">
			<stop  offset="0" style="stop-color:#ED3439"/>
			<stop  offset="1" style="stop-color:#E52E2E"/>
		</linearGradient>
		<path style="fill:url(#SVGID_00000150075253700258228350000003216281229813757619_);" d="M246.9,136c-0.6-0.2-1.2-0.5-1.8-0.6
			c-0.9-0.4-1.7-0.6-2.6-0.9c-0.9-0.3-1.8-0.6-2.8-0.9c-0.4-0.1-0.7-0.2-1.2-0.3c-2-0.6-4.2-1.3-6.3-1.8c-22.2-5.7-51.7-7.2-81.7,9
			c-0.1,0-0.1,0-0.1,0.1c-2.2,1-4.2,2.1-6.3,3.2c-30.1,16.7-51.4,45.1-59.7,77.5c-1.2,4.6-2.1,9.5-2.8,14.3c2-7.7,4.7-15.1,7.9-22.2
			c14.6-31.6,41.3-55.2,71.4-65.8c15.1-5.3,30.8-7.6,46-6.7c15.2,0.8,29.8,4.7,43,11.1l23.5-67.7C259.6,98.3,250.3,116.4,246.9,136
			L246.9,136z M342,100.1C306.3,59,253.6,33,195,33C87.5,33,0,120.5,0,228c0,95.5,69,175.2,159.7,191.8c11.4,2.1,23.2,3.2,35.2,3.2
			c107.5,0,195-87.5,195-194.9C390,179.1,371.9,134.4,342,100.1L342,100.1z M26.9,227.9c0-92.7,75.4-168.1,168.1-168.1
			c13.4,0,26.4,1.6,38.9,4.6c1.7,0.5,3.4,0.9,5.1,1.3c-12.2-0.8-24.5-0.4-36.5,1.2c-14.5,1.9-28.6,5.5-42.1,10.6
			c-4.7,9.3-7.3,19.2-7.9,29.1c-0.1,1.7-0.1,3.4-0.1,5.1c-0.5-1.4-0.9-2.8-1.2-4.1c-2.2-8.2-2.9-16.8-1.9-25.4
			c-5.5,2.5-10.9,5.3-16.1,8.3c-13.9,8.1-26.6,18-37.8,29.2c-0.7,12.5,1.6,24.4,6.3,35.1c-6.8-7.4-11.9-16.3-14.8-26
			c-0.2,0.2-0.3,0.4-0.5,0.5c-2.3,2.7-4.5,5.4-6.6,8.2c-14.3,18.7-24.5,40-30.3,62c-5.7,22-7.1,44.9-4,66.9
			c3.1,21.9,10.5,42.8,21.4,61.2c8.3,14,18.7,26.6,30.5,37.3C54.9,334.3,26.9,284.4,26.9,227.9L26.9,227.9z M195,396
			c-19.3,0-38-3.4-55.3-9.4c-8.6-6-16.5-12.8-23.6-20.2c-13.2-14.1-23.4-30.6-30-48.1c-1.8-4.9-3.4-9.9-4.6-14.9
			c-3.3-12.9-4.7-26.1-4.2-39.1c0.4-9.8,1.8-19.6,4.3-28.9c2-7.7,4.7-15.1,7.9-22.2c14.6-31.6,41.3-55.2,71.4-65.8
			c15.1-5.3,30.8-7.6,46-6.7c15.2,0.8,29.8,4.7,43,11.1l23.5-67.7l1.4-4.1c0.6,0.3,1.1,0.6,1.7,1c51.6,28.7,86.6,83.8,86.6,147
			C363.1,320.6,287.7,396,195,396z M246.9,136c-0.6-0.2-1.2-0.5-1.8-0.6c-0.9-0.4-1.7-0.6-2.6-0.9c-0.9-0.3-1.8-0.6-2.8-0.9
			c-0.4-0.1-0.7-0.2-1.2-0.3c-2-0.6-4.2-1.3-6.3-1.8c-22.2-5.7-51.7-7.2-81.7,9c-0.1,0-0.1,0-0.1,0.1c-2.2,1-4.2,2.1-6.3,3.2
			c-30.1,16.7-51.4,45.1-59.7,77.5c-1.2,4.6-2.1,9.5-2.8,14.3c2-7.7,4.7-15.1,7.9-22.2c14.6-31.6,41.3-55.2,71.4-65.8
			c15.1-5.3,30.8-7.6,46-6.7c15.2,0.8,29.8,4.7,43,11.1l23.5-67.7C259.6,98.3,250.3,116.4,246.9,136L246.9,136z"/>
		<path class="st4" d="M297,345.6c-26.5-1.7-51.8-12.6-75.8-26.9c-1.5-0.9-2.4-2.8-3.2-4.4c-14.8-32.2-37.8-53.7-68-65.7
			c-4.7-17.5,6.7-37.1,6.7-37.1c-29.2,7.9-35.1,26.3-35.8,28.6c7.1-45.5,37.5-75.9,80.6-80.1c30.5-2.9,70.5,12.2,76.1,38.1
			c-11.4,2.7-22.9,5.4-34.4,8.1c0.1,0.4,0.1,0.8,0.1,1.2h44.5c8.3,21.8,2.1,58.8,1.2,59.9c-9.4-51.9-35.1-25.3-64.9-40
			c4,21.9,17.4,31.4,36.6,33.8c11.5,1.5,16,6.6,18.2,19C282.7,302.3,290.6,323.5,297,345.6L297,345.6z"/>
		
			<linearGradient id="SVGID_00000080185771266803208980000015622604015294561204_" gradientUnits="userSpaceOnUse" x1="139.874" y1="150.8974" x2="301.834" y2="220.0174" gradientTransform="matrix(1 0 0 -1 0 448)">
			<stop  offset="0" style="stop-color:#EDCA97"/>
			<stop  offset="1" style="stop-color:#A37D4A"/>
		</linearGradient>
		<path style="fill:url(#SVGID_00000080185771266803208980000015622604015294561204_);" d="M297,345.6c-1.3-0.1-2.6-0.2-3.9-0.3
			c-25.1-2.4-49.1-12.9-72-26.5c-1.5-0.9-2.4-2.8-3.2-4.4c-13.3-29-33.4-49.4-59.3-61.8c-2.8-1.4-5.7-2.7-8.7-3.9
			c-4.7-17.5,6.7-37.1,6.7-37.1c-29.2,7.9-35.1,26.3-35.8,28.6c7.1-45.5,37.5-75.9,80.6-80.1c29.1-2.8,66.9,10.9,75.1,34.7
			c0.4,1.1,0.7,2.2,1,3.4c-11.4,2.7-22.9,5.4-34.4,8.1c0.1,0.4,0.1,0.8,0.1,1.2h44.5c8.3,21.8,2.1,58.8,1.2,59.9
			c-9.4-51.9-35.1-25.3-64.9-40c4,21.9,17.4,31.4,36.6,33.8c11.5,1.5,16,6.6,18.2,19c3.7,21.1,11.2,41.5,17.4,62.7
			C296.5,343.9,296.7,344.8,297,345.6L297,345.6z"/>
		
			<linearGradient id="SVGID_00000027602104385838299100000003821653205447012242_" gradientUnits="userSpaceOnUse" x1="116.6745" y1="169.297" x2="426.9845" y2="251.937" gradientTransform="matrix(1 0 0 -1 0 448)">
			<stop  offset="0" style="stop-color:#CB2027"/>
			<stop  offset="1" style="stop-color:#89191C"/>
		</linearGradient>
		<path style="fill:url(#SVGID_00000027602104385838299100000003821653205447012242_);" d="M342,100.1c-26.4-14.7-56.8-23-89.2-23
			c-36.9,0-71.4,10.9-100.2,29.7c-0.5,0.3-0.9,0.6-1.4,0.9c-49.6,32.9-82.4,89.3-82.4,153.4c0,67.6,36.5,126.8,90.9,158.7
			c11.4,2.1,23.2,3.2,35.2,3.2c107.5,0,195-87.5,195-194.9C390,179.1,371.9,134.4,342,100.1L342,100.1z M195,396
			c-19.3,0-38-3.4-55.3-9.4c-8.6-6-16.5-12.8-23.6-20.2c-13.2-14.1-23.4-30.6-30-48.1c-1.8-4.9-3.4-9.9-4.6-14.9
			c-3.3-12.9-4.7-26.1-4.2-39.1c0.4-9.8,1.8-19.6,4.3-28.9c2-7.7,4.7-15.1,7.9-22.2c14.6-31.6,41.3-55.2,71.4-65.8
			c15.1-5.3,30.8-7.6,46-6.7c15.2,0.8,29.8,4.7,43,11.1l23.5-67.7l1.4-4.1c0.6,0.3,1.1,0.6,1.7,1c51.6,28.7,86.6,83.8,86.6,147
			C363.1,320.6,287.7,396,195,396L195,396z"/>
		
			<linearGradient id="SVGID_00000170265972865974424180000010203374094999473051_" gradientUnits="userSpaceOnUse" x1="206.6735" y1="223.9032" x2="315.4035" y2="139.6832" gradientTransform="matrix(1 0 0 -1 0 448)">
			<stop  offset="0" style="stop-color:#A37D4A"/>
			<stop  offset="0.56" style="stop-color:#C6A06A"/>
		</linearGradient>
		<path style="fill:url(#SVGID_00000170265972865974424180000010203374094999473051_);" d="M296.2,343c-1,0.8-2,1.6-3.1,2.3
			c-25.1-2.4-49.1-12.9-72-26.5c-1.5-0.9-2.4-2.8-3.2-4.4c-13.3-29-33.4-49.4-59.3-61.8c9.8-37.2,43.7-64.6,84-64.6
			c12,0,23.5,2.4,33.9,6.9c0.4,1.1,0.7,2.2,1,3.4c-11.4,2.7-22.9,5.4-34.4,8.1c0.1,0.4,0.1,0.8,0.1,1.2h44.5
			c8.3,21.8,2.1,58.8,1.2,59.9c-9.4-51.9-35.1-25.3-64.9-40c4,21.9,17.4,31.4,36.6,33.8c11.5,1.5,16,6.6,18.2,19
			C282.5,301.4,290,321.8,296.2,343L296.2,343z"/>
	</g>
</g>
</svg>
