<svg
  xmlns="http://www.w3.org/2000/svg"
  xmlns:xlink="http://www.w3.org/1999/xlink"
  width="136.611"
  height="30.943"
  viewBox="0 0 136.611 30.943"
>
  <defs>
    <linearGradient
      id="linear-gradient"
      x1="0.5"
      y1="-0.002"
      x2="0.5"
      y2="0.982"
      gradientUnits="objectBoundingBox"
    >
      <stop offset="0" stop-color="#66cc9a" />
      <stop offset="1" stop-color="#339a99" />
    </linearGradient>
  </defs>
  <g id="logo" transform="translate(196.041 -3981.23)">
    <path
      id="Path_3488"
      data-name="Path 3488"
      d="M-164.081,3982.393l-1.606-1.163-1.606,1.163a21.672,21.672,0,0,0-5.4,6,14.434,14.434,0,0,0-1.226,2.666,16.613,16.613,0,0,1,2.161,2.909,9.686,9.686,0,0,1,1.4,4.793c0,.227-.013.45-.032.673a9.588,9.588,0,0,1-.991,3.4,18.463,18.463,0,0,1-5.079,5.957,18.472,18.472,0,0,1-5.07-5.939,9.615,9.615,0,0,1-1-3.385c-.021-.234-.036-.469-.036-.707a9.712,9.712,0,0,1,1.424-4.828,16.652,16.652,0,0,1,2.158-2.894,14.484,14.484,0,0,0-1.228-2.662,21.68,21.68,0,0,0-5.391-5.986l-1.606-1.163-1.606,1.163c-.3.214-7.235,5.319-7.235,12.248a12.171,12.171,0,0,0,1.575,5.784h3.194a10.371,10.371,0,0,1-2.031-5.784c0-5.612,6.1-10.031,6.1-10.031a18.476,18.476,0,0,1,5.07,5.939,13.679,13.679,0,0,0-3.166,8.213,11.2,11.2,0,0,0,.615,3.6,14.465,14.465,0,0,0,1.228,2.662,21.681,21.681,0,0,0,5.391,5.986l1.606,1.163,1.606-1.163a21.681,21.681,0,0,0,5.4-6,14.431,14.431,0,0,0,1.226-2.666,11.189,11.189,0,0,0,.609-3.582,13.666,13.666,0,0,0-3.151-8.194,18.46,18.46,0,0,1,5.079-5.957s6.1,4.419,6.1,10.031a10.371,10.371,0,0,1-2.031,5.784h3.194a12.171,12.171,0,0,0,1.575-5.784C-156.847,3987.712-163.786,3982.607-164.081,3982.393Z"
      fill="url(#linear-gradient)"
    />
    <g
      id="Group_3"
      data-name="Group 3"
      transform="translate(-148.364 3991.311)"
    >
      <path
        id="Path_3489"
        data-name="Path 3489"
        d="M36.039,4030.3H38.2l3.234,5.579,3.235-5.579H46.82v10.781H44.664v-6.469l-2.2,3.773H40.392l-2.2-3.773v6.469H36.039Z"
        transform="translate(-36.039 -4030.3)"
        fill="#fff"
      />
      <path
        id="Path_3490"
        data-name="Path 3490"
        d="M102.942,4038.925H105.1v-6.469h-2.156V4030.3h6.468v2.156h-2.156v6.469h2.156v2.156h-6.468Z"
        transform="translate(-89.198 -4030.3)"
        fill="#fff"
      />
      <path
        id="Path_3491"
        data-name="Path 3491"
        d="M156.941,4041.081a2.683,2.683,0,0,1-2.507-1.738l-2.385-6.55a.522.522,0,0,0-.5-.337h-.539v8.625h-2.156V4030.3h2.7a2.72,2.72,0,0,1,2.547,1.833l2.345,6.455a.535.535,0,0,0,.5.337h.539V4030.3h2.156v10.781Z"
        transform="translate(-125.679 -4030.3)"
        fill="#fff"
      />
      <path
        id="Path_3492"
        data-name="Path 3492"
        d="M226.539,4030.3v2.156h-4.312v8.625h-2.156v-8.625h-4.313V4030.3Z"
        transform="translate(-178.838 -4030.3)"
        fill="#fff"
      />
      <path
        id="Path_3493"
        data-name="Path 3493"
        d="M293.442,4038.386a2.7,2.7,0,0,1-2.7,2.7h-8.086V4030.3h8.086a2.7,2.7,0,0,1,2.7,2.7Zm-2.7.539a.541.541,0,0,0,.539-.539V4033a.541.541,0,0,0-.539-.539h-5.93v6.469Z"
        transform="translate(-231.997 -4030.3)"
        fill="#fff"
      />
      <path
        id="Path_3494"
        data-name="Path 3494"
        d="M349.564,4036.85a2.739,2.739,0,0,1,.485-1.55l2.7-3.854a2.693,2.693,0,0,1,2.21-1.146,2.767,2.767,0,0,1,2.21,1.146l2.7,3.854a2.677,2.677,0,0,1,.485,1.55v4.231h-2.156v-2.156H351.72v2.156h-2.156Zm4.959-4.165-2.709,3.855a.686.686,0,0,0-.094.229h6.469a.686.686,0,0,0-.094-.229l-2.709-3.855a.537.537,0,0,0-.431-.229A.519.519,0,0,0,354.523,4032.685Z"
        transform="translate(-285.155 -4030.3)"
        fill="#fff"
      />
      <path
        id="Path_3495"
        data-name="Path 3495"
        d="M427.248,4038.386a2.7,2.7,0,0,1-2.7,2.7h-5.391a2.7,2.7,0,0,1-2.7-2.7V4033a2.7,2.7,0,0,1,2.7-2.7h5.391a2.7,2.7,0,0,1,2.7,2.7Zm-2.7.539a.541.541,0,0,0,.539-.539V4033a.541.541,0,0,0-.539-.539h-5.391a.54.54,0,0,0-.539.539v5.391a.54.54,0,0,0,.539.539Z"
        transform="translate(-338.314 -4030.3)"
        fill="#fff"
      />
    </g>
  </g>
</svg>
