<?xml version="1.0" encoding="UTF-8"?><svg id="Warstwa_2" xmlns="http://www.w3.org/2000/svg" xmlns:xlink="http://www.w3.org/1999/xlink" viewBox="0 0 545.4 545.4"><defs><linearGradient id="linear-gradient" x1="272.7" y1="97.61" x2="272.7" y2="440.91" gradientUnits="userSpaceOnUse"><stop offset="0" stop-color="#66cc9a"/><stop offset="1" stop-color="#339a99"/></linearGradient></defs><g id="Layer_1"><rect width="545.4" height="545.4" style="fill:#252525;"/><path d="m412.1,111.36l-18.11-13.11-18.11,13.11c-2.21,1.6-37.45,27.54-60.88,67.66-5.43,9.3-10.22,19.36-13.83,30.06,8.33,9.09,17.13,20.19,24.36,32.8,9.18,15.99,15.84,34.37,15.84,54.05,0,2.55-.15,5.08-.37,7.58-1.17,13.63-5.37,26.54-11.17,38.35-19.59,39.85-57.28,67.17-57.28,67.17,0,0-37.55-27.23-57.17-66.97-5.8-11.76-10.01-24.6-11.24-38.17-.24-2.63-.4-5.29-.4-7.97,0-19.84,6.77-38.36,16.06-54.44,7.25-12.54,16.03-23.59,24.34-32.63-3.62-10.69-8.42-20.73-13.85-30.01-23.43-40.03-58.58-65.9-60.78-67.5l-18.11-13.11-18.11,13.11c-3.33,2.41-81.58,59.97-81.58,138.11,0,24.03,7.41,46.1,17.76,65.23h36.02c-12.61-18.34-22.9-40.77-22.9-65.23,0-63.28,68.81-113.11,68.81-113.11,0,0,37.55,27.22,57.17,66.96-18.57,24.01-35.69,56.06-35.69,92.61,0,14.3,2.64,27.89,6.94,40.6,3.62,10.69,8.42,20.73,13.85,30.01,23.43,40.03,58.58,65.9,60.79,67.5l18.11,13.11,18.11-13.11c2.21-1.6,37.45-27.54,60.88-67.66,5.43-9.3,10.22-19.36,13.83-30.06,4.26-12.65,6.87-26.17,6.87-40.39,0-36.45-17.03-68.42-35.54-92.4,19.59-39.85,57.28-67.17,57.28-67.17,0,0,68.81,49.83,68.81,113.11,0,24.46-10.29,46.89-22.91,65.23h36.02c10.34-19.13,17.76-41.2,17.76-65.23,0-78.14-78.25-135.7-81.58-138.11Z" style="fill:url(#linear-gradient);"/></g></svg>
