<?xml version="1.0" encoding="UTF-8" standalone="no"?>
<!DOCTYPE svg PUBLIC "-//W3C//DTD SVG 1.1//EN" "http://www.w3.org/Graphics/SVG/1.1/DTD/svg11.dtd">
<svg width="100%" height="100%" viewBox="0 0 739 311" version="1.1" xmlns="http://www.w3.org/2000/svg" xmlns:xlink="http://www.w3.org/1999/xlink" xml:space="preserve" xmlns:serif="http://www.serif.com/" style="fill-rule:evenodd;clip-rule:evenodd;stroke-linejoin:round;stroke-miterlimit:2;">
    <g transform="matrix(1,0,0,1,-132,-363)">
        <path d="M460.9,507.2C460.9,510.7 460.4,514 459.4,516.9C458.4,519.9 456.7,522.4 454.5,524.5C452.2,526.6 449.3,528.3 445.7,529.5C442.1,530.7 437.7,531.3 432.5,531.3L401,531.3L401,553.5L382,553.5L382,483.1L432.5,483.1C437.7,483.1 442.1,483.7 445.7,484.9C449.3,486.1 452.3,487.7 454.5,489.9C456.8,492 458.4,494.6 459.4,497.5C460.4,500.5 460.9,503.7 460.9,507.2ZM441.7,507.5C441.7,505.9 441.5,504.5 441,503.3C440.5,502.1 439.8,501.2 438.7,500.4C437.6,499.6 436.3,499.1 434.6,498.7C432.9,498.3 430.8,498.2 428.3,498.2L400.9,498.2L400.9,516.3L428.3,516.3C430.8,516.3 432.9,516.2 434.6,515.9C436.3,515.6 437.7,515.1 438.7,514.4C439.8,513.7 440.5,512.8 441,511.7C441.5,510.6 441.7,509.2 441.7,507.5Z" style="fill-rule:nonzero;"/>
        <path d="M490.4,553.6L471.4,553.6L471.4,483.2L519,483.2C524.1,483.2 528.5,483.7 532,484.8C535.6,485.9 538.5,487.4 540.7,489.3C542.9,491.2 544.6,493.6 545.6,496.3C546.6,499 547.1,502.1 547.1,505.5C547.1,508.5 546.7,511.1 545.8,513.3C545,515.5 543.8,517.4 542.4,519C541,520.6 539.3,521.9 537.5,523C535.6,524.1 533.6,525 531.6,525.7L554.6,553.5L532.4,553.5L511.1,527.6L490.4,527.6L490.4,553.6ZM528,505.4C528,504 527.8,502.9 527.5,501.9C527.1,500.9 526.5,500.2 525.6,499.6C524.7,499 523.5,498.6 522,498.3C520.5,498 518.7,497.9 516.4,497.9L490.4,497.9L490.4,513L516.4,513C518.6,513 520.5,512.9 522,512.6C523.5,512.3 524.7,511.9 525.6,511.3C526.5,510.7 527.1,509.9 527.5,509C527.8,508 528,506.8 528,505.4Z" style="fill-rule:nonzero;"/>
        <rect x="563.1" y="483.2" width="19" height="70.4"/>
        <path d="M688.3,553.6L688.3,504.2L662.2,553.6L644,553.6L617.9,504.2L617.9,553.6L598.9,553.6L598.9,483.2L624.7,483.2L653.1,536.5L681.5,483.2L707.2,483.2L707.2,553.6L688.3,553.6Z" style="fill-rule:nonzero;"/>
        <path d="M724,553.6L724,483.2L795.2,483.2L795.2,498.2L743.5,498.2L743.5,509.8L792.6,509.8L792.6,524.8L743.5,524.8L743.5,538.5L795.9,538.5L795.9,553.5L724,553.5L724,553.6Z" style="fill-rule:nonzero;"/>
    </g>
    <g transform="matrix(1,0,0,1,-132,-363)">
        <path d="M336.7,471.8L282.3,440.4C277,437.3 270.4,437.3 265,440.4L249.4,449.4L308.4,484L320.7,491.1L320.7,531.4L345.4,517.4L345.4,486.9C345.3,480.6 342,474.9 336.7,471.8Z" style="fill:rgb(0,0,245);fill-rule:nonzero;stroke:rgb(0,88,250);stroke-width:1px;"/>
        <path d="M238.1,455.9L210.5,471.8C205.2,474.9 201.9,480.6 201.9,486.8L201.9,549.7C201.9,555.9 205.2,561.6 210.5,564.7L226.5,574L226.5,491.1L262.6,470.3L238.1,455.9Z" style="fill:rgb(0,0,245);fill-rule:nonzero;"/>
        <path d="M249.6,558.7L249.6,587.2L264.9,596C270.2,599.1 276.8,599.1 282.2,596L336.6,564.6C341.9,561.5 345.2,555.8 345.2,549.6L345.2,531.1L273.5,572.5L249.6,558.7Z" style="fill:rgb(0,0,245);fill-rule:nonzero;"/>
        <path d="M273.6,545.9L297.5,532L297.5,504.4L273.6,490.6L249.6,504.4L249.6,532L273.6,545.9Z" style="fill:rgb(0,0,245);fill-rule:nonzero;"/>
    </g>
</svg>
