<?xml version="1.0" encoding="UTF-8"?>
<svg id="Layer_2" data-name="Layer 2" xmlns="http://www.w3.org/2000/svg" viewBox="0 0 143.44 160.28">
  <defs>
    <style>
      .cls-1 {
        fill: #0000f5;
      }
    </style>
  </defs>
  <g id="Layer_1-2" data-name="Layer 1">
    <g>
      <path class="cls-1" d="m134.8,33.74L80.36,2.32c-5.35-3.09-11.94-3.09-17.29,0l-15.62,9.02,59.04,34.55,12.27,7.09v40.31l24.67-14.04v-30.53c0-6.18-3.3-11.88-8.64-14.97Z"/>
      <path class="cls-1" d="m36.22,17.82l-27.57,15.92C3.3,36.83,0,42.54,0,48.72v62.85c0,6.18,3.3,11.88,8.64,14.97l16.03,9.25V52.98l36.05-20.81-24.5-14.34Z"/>
      <path class="cls-1" d="m47.77,120.64v28.49l15.3,8.83c5.35,3.09,11.94,3.09,17.29,0l54.43-31.43c5.35-3.09,8.64-8.8,8.64-14.97v-18.47l-71.72,41.37-23.95-13.82Z"/>
      <polygon class="cls-1" points="71.72 107.79 95.67 93.97 95.67 66.32 71.72 52.49 47.77 66.32 47.77 93.97 71.72 107.79"/>
    </g>
  </g>
</svg>
