<?xml version="1.0" encoding="utf-8"?>
<!-- Generator: Adobe Illustrator 26.3.1, SVG Export Plug-In . SVG Version: 6.00 Build 0)  -->
<svg version="1.1" xmlns="http://www.w3.org/2000/svg" xmlns:xlink="http://www.w3.org/1999/xlink" x="0px" y="0px"
	 viewBox="0 0 895 1000" style="enable-background:new 0 0 895 1000;" xml:space="preserve">
<style type="text/css">
	.st0{fill:#FFFFFF;}
</style>
<g id="Layer_1">
	<g>
		<g>
			<path class="st0" d="M1227.5,1807.1c2.8,0,5.5-1,8.1-3c2.6-2,4.3-4.4,5.2-7.2c0.9-2.8,0.6-5.2-0.8-7.2c-1.4-2-3.5-3-6.3-3h-11.4
				c-5.1,0-8.9-1.8-11.4-5.5c-2.5-3.6-3-8-1.4-13.1c1.6-5.1,4.7-9.5,9.5-13.1c4.7-3.6,9.6-5.5,14.8-5.5h11.4c5.1,0,8.9,1.8,11.5,5.5
				c2.5,3.6,3,8,1.5,13.1c-0.4,1.2-1.1,2.2-2.2,3c-1.1,0.8-2.2,1.2-3.4,1.2c-1.2,0-2-0.4-2.6-1.2c-0.6-0.8-0.7-1.8-0.3-3
				c0.9-2.8,0.6-5.2-0.8-7.2c-1.4-2-3.5-3-6.3-3H1231c-2.8,0-5.5,1-8.1,3c-2.6,2-4.3,4.4-5.2,7.2c-0.9,2.8-0.6,5.2,0.8,7.2
				c1.4,2,3.5,3,6.3,3h11.4c5.1,0,8.9,1.8,11.5,5.5c2.5,3.6,3,8,1.5,13.1c-1.6,5.1-4.7,9.5-9.5,13.1c-4.8,3.6-9.7,5.5-14.8,5.5
				h-11.4c-5.1,0-8.9-1.8-11.4-5.5c-2.5-3.6-3-8-1.5-13.1c0.4-1.2,1.1-2.2,2.2-3c1-0.8,2.2-1.2,3.3-1.2c1.2,0,2,0.4,2.6,1.2
				s0.7,1.8,0.3,3c-0.9,2.8-0.6,5.2,0.8,7.2c1.4,2,3.5,3,6.3,3H1227.5z"/>
			<path class="st0" d="M1279.1,1753.7c0.3-1.1,1.1-2.1,2.1-2.9c1-0.8,2.2-1.2,3.3-1.2s2,0.4,2.6,1.2c0.6,0.8,0.7,1.8,0.3,2.9
				l-7.7,25.3l40-28.4c1.1-0.8,2.2-1.2,3.4-1.1c1.1,0.1,1.9,0.5,2.5,1.4c0.5,0.9,0.5,1.9,0.1,3c-0.4,1.2-1.2,2.1-2.3,2.9l-32.9,23.4
				l17.4,28.2c0.5,0.9,0.6,1.9,0.2,3c-0.4,1.2-1.1,2.1-2.2,2.9c-1,0.7-2.1,1.1-3.2,1.1c-1.2,0-2.1-0.4-2.7-1.3l-17.4-28.3l-6.3,4.5
				l-6.4,20.9c-0.4,1.2-1.1,2.1-2.1,2.9c-1.1,0.8-2.2,1.2-3.4,1.2s-2-0.4-2.6-1.2c-0.6-0.8-0.7-1.8-0.3-2.9L1279.1,1753.7z"/>
			<path class="st0" d="M1327.9,1815.5c-1.2,0-2-0.4-2.6-1.2c-0.6-0.8-0.7-1.8-0.3-2.9l17.6-57.5c0.3-1.1,1.1-2.1,2.1-2.9
				c1-0.8,2.2-1.2,3.3-1.2s2,0.4,2.6,1.2c0.6,0.8,0.7,1.8,0.3,2.9l-17.6,57.5c-0.4,1.2-1.1,2.1-2.1,2.9
				C1330.2,1815.1,1329.1,1815.5,1327.9,1815.5z"/>
			<path class="st0" d="M1370.6,1758c-1.2,0-2-0.4-2.6-1.2c-0.6-0.8-0.7-1.8-0.3-3c0.3-1.1,1.1-2.1,2.1-2.9c1-0.8,2.2-1.2,3.3-1.2
				h22.3c5.9,0,10.3,2.1,13.2,6.3c2.9,4.2,3.5,9.3,1.7,15.2c-1.8,5.9-5.5,11-11,15.2c-5.5,4.2-11.2,6.3-17.1,6.3h-18l-5.7,18.7
				c-0.4,1.2-1.1,2.1-2.1,2.9c-1.1,0.8-2.2,1.2-3.4,1.2c-1.2,0-2-0.4-2.6-1.2c-0.6-0.8-0.7-1.8-0.3-2.9l7-22.9
				c0.4-1.2,1.1-2.2,2.2-3c1-0.8,2.2-1.2,3.3-1.2h22.3c3.6,0,7.1-1.3,10.4-3.8c3.4-2.6,5.6-5.7,6.7-9.3c1.1-3.6,0.8-6.7-1-9.3
				c-1.8-2.5-4.5-3.8-8.1-3.8H1370.6z"/>
		</g>
		<g>
			<path class="st0" d="M994.7,1678.1c47.1,0,87,31.4,100,74.3c5.1,3.1,10,6.4,14.7,9.8c-9.6-54.6-57.4-96.1-114.7-96.1
				c-53.9,0-99.4,36.8-112.6,86.7c3.2,2.7,6.7,5.5,10.4,8.2C902.5,1713.7,944.6,1678.1,994.7,1678.1z"/>
			<path class="st0" d="M1096.9,1804.1c-10,47.3-52,82.9-102.2,82.9c-47.1,0-87-31.4-100-74.3c-5.1-3.1-10-6.4-14.7-9.8
				c9.6,54.6,57.4,96.1,114.7,96.1c53.9,0,99.4-36.8,112.6-86.7C1104.1,1809.5,1100.6,1806.8,1096.9,1804.1z"/>
			<path class="st0" d="M1107.1,1863.9c20.4,0,34.4-7.2,39.4-20.2c6.8-17.7-4.9-36.3-15.9-48.8c-14.1-16-36-31.9-60.1-43.8
				c-40.7-20-79.7-25.5-99.5-14.1c-2.3,1.3-4,3.6-4.8,6.5c-0.8,2.8-0.6,5.8,0.6,8.4s3.2,4.6,5.7,5.5c2.5,0.9,5.1,0.7,7.5-0.7
				c12-7,44.3-4.2,82.7,14.7c2.9,1.4,5.9,3,8.9,4.6c18.8,9.7,35.7,21.3,47.5,32.7c19.6,19,20.1,32.4,17,40.3
				c-3.5,9.1-15.4,13.7-35.2,13.7c-3.8,0-7.9-0.2-12.2-0.5C1095.2,1863.4,1101.3,1863.9,1107.1,1863.9
				C1107.1,1863.9,1107.1,1863.9,1107.1,1863.9z"/>
			<path class="st0" d="M882.4,1701.1c-20.4,0-34.4,7.2-39.4,20.2c-6.8,17.7,4.9,36.3,15.9,48.8c14.1,16,36,31.9,60.1,43.8
				c40.7,20,79.7,25.5,99.5,14.1c2.3-1.3,4-3.6,4.8-6.5c0.8-2.8,0.6-5.8-0.6-8.4s-3.2-4.6-5.7-5.5c-2.5-0.9-5.1-0.7-7.5,0.7
				c-12,7-44.3,4.2-82.7-14.7c-2.9-1.4-5.9-3-8.9-4.6c-18.8-9.7-35.7-21.3-47.5-32.7c-19.6-19-20.1-32.4-17-40.3
				c3.5-9.1,15.4-13.7,35.2-13.7c3.8,0,7.9,0.2,12.2,0.5C894.3,1701.6,888.1,1701.1,882.4,1701.1
				C882.4,1701.1,882.4,1701.1,882.4,1701.1z"/>
		</g>
	</g>
	<g>
		<g>
			<path d="M232.9,976.9c7.7,0,15.2-2.7,22.3-8.2c7.1-5.5,11.9-12,14.2-19.7c2.4-7.7,1.7-14.3-2.1-19.8s-9.6-8.2-17.3-8.2h-31.4
				c-14.1,0-24.5-5-31.4-15c-7-9.9-8.3-22-4-36.1c4.3-14.1,13-26,26-36c13-10,26.5-15,40.6-15h31.4c14.1,0,24.6,5,31.5,15
				c7,9.9,8.3,21.9,4,36c-1,3.2-2.9,5.9-5.9,8.2c-3,2.3-6.1,3.4-9.2,3.4c-3.2,0-5.5-1.1-7-3.4c-1.6-2.3-1.9-5-0.9-8.2
				c2.3-7.7,1.6-14.2-2.2-19.7s-9.6-8.2-17.3-8.2h-31.4c-7.7,0-15.1,2.7-22.2,8.2c-7.1,5.5-11.9,12-14.2,19.7
				c-2.4,7.7-1.7,14.3,2.1,19.8c3.8,5.5,9.5,8.2,17.2,8.2h31.4c14.1,0,24.6,5,31.5,15c7,9.9,8.3,22,4,36.1c-4.3,14.1-13,26.1-26,36
				c-13.1,10-26.6,15-40.7,15h-31.4c-14.1,0-24.5-5-31.4-15c-7-9.9-8.3-21.9-4-36c1-3.2,3-5.9,5.9-8.2c2.9-2.3,5.9-3.4,9.1-3.4
				c3.2,0,5.6,1.1,7.2,3.4s1.9,5,0.9,8.2c-2.3,7.7-1.6,14.2,2.2,19.7c3.8,5.5,9.5,8.2,17.2,8.2H232.9z"/>
			<path d="M374.8,830.3c1-3.1,2.9-5.8,5.9-8.1c2.9-2.3,5.9-3.4,9.1-3.4s5.6,1.1,7.2,3.4c1.6,2.3,1.9,5,0.9,8.1l-21.3,69.6l109.9-78
				c3-2.2,6.1-3.2,9.3-3c3.1,0.2,5.3,1.4,6.8,3.8c1.4,2.4,1.5,5.1,0.4,8.3c-1.1,3.2-3.2,5.9-6.2,8l-90.5,64.3l47.9,77.5
				c1.5,2.4,1.6,5.1,0.5,8.2c-1.1,3.2-3.1,5.9-6.1,8.1c-2.8,2-5.7,3-8.8,3c-3.4,0-5.8-1.2-7.3-3.7l-47.9-77.8l-17.4,12.4l-17.6,57.6
				c-1,3.2-2.9,5.9-5.9,8.1c-3,2.3-6,3.4-9.2,3.4c-3.2,0-5.5-1.1-7-3.4c-1.6-2.2-1.9-4.9-0.9-8.1L374.8,830.3z"/>
			<path d="M509,1000c-3.2,0-5.5-1.1-7-3.4c-1.6-2.2-1.9-4.9-0.9-8.1l48.4-158.2c1-3.1,2.9-5.8,5.9-8.1c2.9-2.3,5.9-3.4,9.1-3.4
				c3.2,0,5.6,1.1,7.2,3.4c1.6,2.3,1.9,5,0.9,8.1l-48.4,158.2c-1,3.2-2.9,5.9-5.9,8.1C515.3,998.9,512.2,1000,509,1000z"/>
			<path d="M626.3,841.9c-3.2,0-5.5-1.1-7-3.4c-1.6-2.3-1.9-5-0.9-8.2c1-3.1,2.9-5.8,5.9-8.1c2.9-2.3,5.9-3.4,9.1-3.4h61.2
				c16.2,0,28.4,5.8,36.4,17.3c8.1,11.6,9.6,25.5,4.6,41.8c-5,16.3-15.1,30.3-30.2,41.8c-15.1,11.5-30.7,17.3-46.9,17.3h-49.6
				l-15.7,51.5c-1,3.2-2.9,5.9-5.9,8.1c-3,2.3-6.1,3.4-9.3,3.4c-3.2,0-5.5-1.1-7-3.4c-1.6-2.2-1.9-4.9-0.9-8.1l19.3-63
				c1-3.2,3-5.9,5.9-8.2c2.9-2.3,5.9-3.4,9.1-3.4h61.2c9.9,0,19.5-3.5,28.6-10.5c9.2-7.1,15.4-15.6,18.4-25.5
				c3-9.9,2.1-18.4-2.8-25.5c-4.8-7-12.2-10.5-22.2-10.5H626.3z"/>
		</g>
		<g>
			<path d="M839.5,362.7c-13.1-14.8-28.8-29.9-46.6-44.8l-5.9-33.2c-13.9-78.8-55.4-150.8-116.8-202.9C608,29,528.9,0,447.5,0
				c-91.4,0-180.5,37.3-245,102.4c-18.6-2.8-48.1-6.2-63.9-6.2c-90.4,0-121.1,44.7-131.4,71.3c-18.4,47.7-1.7,102.8,48.3,159.4
				c13.1,14.8,28.8,29.9,46.6,44.8l5.9,33.2c13.9,78.8,55.4,150.8,116.8,202.9c62.2,52.7,141.3,81.8,222.7,81.8
				c90.5,0,175.8-34.8,240.7-98.1c17.8,1.7,43.2,1.9,63.9,1.9h4.3c90.4,0,121.1-44.7,131.4-71.3
				C906.2,474.4,889.4,419.3,839.5,362.7z"/>
			<g>
				<path class="st0" d="M447.5,57.7c129.5,0,239.3,86.2,274.9,204.3c14,8.6,27.5,17.6,40.3,26.9C736.2,139,605,24.7,447.5,24.7
					C299.3,24.7,174.3,126,138.1,263c8.8,7.5,18.3,15.1,28.5,22.5C194,155.6,309.6,57.7,447.5,57.7z"/>
				<path class="st0" d="M728.4,404.1C701,534,585.5,631.8,447.5,631.8c-129.5,0-239.3-86.2-274.9-204.3
					c-14-8.6-27.5-17.6-40.3-26.9c26.5,150,157.7,264.2,315.2,264.2c148.2,0,273.2-101.3,309.4-238.2
					C748.2,419,738.6,411.5,728.4,404.1z"/>
				<path class="st0" d="M756.4,568.6c56,0,94.5-19.7,108.3-55.4c18.8-48.6-13.4-99.8-43.8-134.1c-38.7-43.8-99-87.7-165.3-120.3
					c-111.8-55-219.1-70.2-273.4-38.7c-6.4,3.7-11.1,10-13.3,17.7c-2.2,7.7-1.6,16,1.7,23.2c3.3,7.2,8.9,12.6,15.7,15
					c6.8,2.5,14.1,1.8,20.5-1.9c33.1-19.2,121.8-11.5,227.3,40.3c8.1,4,16.3,8.2,24.3,12.6c51.7,26.5,98.1,58.5,130.6,89.9
					c53.9,52.1,55.2,89.1,46.8,110.9c-9.6,25-42.2,37.6-96.9,37.6c-10.4,0-21.7-0.5-33.4-1.5C723.5,567.1,740.5,568.6,756.4,568.6
					C756.4,568.6,756.4,568.6,756.4,568.6z"/>
				<path class="st0" d="M138.6,120.9c-56,0-94.5,19.7-108.3,55.4C11.6,225,43.8,276.2,74.1,310.5c38.7,43.8,99,87.7,165.3,120.3
					c111.8,55,219.1,70.2,273.4,38.7c6.4-3.7,11.1-10,13.3-17.7c2.2-7.7,1.6-16-1.7-23.2c-3.3-7.2-8.9-12.6-15.7-15
					c-6.8-2.5-14.1-1.8-20.5,1.9c-33.1,19.2-121.8,11.5-227.3-40.3c-8.1-4-16.3-8.2-24.3-12.6c-51.7-26.5-98.1-58.5-130.6-89.9
					C52,220.5,50.8,183.5,59.2,161.7c9.6-25,42.2-37.6,96.9-37.6c10.4,0,21.7,0.5,33.4,1.5C171.5,122.5,154.5,120.9,138.6,120.9
					C138.6,120.9,138.6,120.9,138.6,120.9z"/>
			</g>
		</g>
	</g>
</g>
<g id="Layer_2">
</g>
</svg>
