<svg width="20" height="20" viewBox="0 0 20 20" fill="none" xmlns="http://www.w3.org/2000/svg">
<path d="M9.99598 19.9981C15.5161 19.9981 19.991 15.5232 19.991 10.0031C19.991 4.48299 15.5161 0.00805664 9.99598 0.00805664C4.47589 0.00805664 0.000976562 4.48299 0.000976562 10.0031C0.000976562 15.5232 4.47589 19.9981 9.99598 19.9981Z" fill="#172852"/>
<path d="M8.05205 4.47471C9.22247 4.03693 10.5398 4.03593 11.7322 4.39575C13.2845 4.87751 14.5948 6.04892 15.2795 7.51919C15.4684 7.93798 15.6493 8.37476 15.6673 8.84053C14.7947 8.33478 13.8382 8.00694 12.8797 7.70809C11.3464 7.15537 9.74122 6.77156 8.28993 6.01194C7.9521 5.81004 7.52131 5.60315 7.42936 5.18236C7.39238 4.81854 7.77719 4.61564 8.05205 4.47471Z" fill="#FFD83D"/>
<path d="M4.51877 8.01299C4.8576 7.09344 5.41332 6.23987 6.16794 5.60718C6.35985 7.1854 7.03151 8.71064 8.14096 9.85808C9.47129 11.2404 11.3663 12.089 13.2944 12.057C14.06 12.081 14.8086 11.9041 15.5553 11.7611C14.8206 14.4158 11.9111 16.178 9.21542 15.7542C7.58823 15.5463 6.08599 14.5827 5.17944 13.2224C4.15695 11.7192 3.89908 9.72314 4.51877 8.01299Z" fill="#FFD83D"/>
<path d="M12.8794 7.70825C13.8379 8.00711 14.7944 8.33495 15.6669 8.84071L15.7259 8.87169C15.8068 9.4804 15.8658 10.1011 15.7579 10.7108C15.3191 10.5249 14.9633 10.1981 14.5915 9.9092C13.8759 9.31348 13.1453 8.63181 12.8794 7.70825Z" fill="#FF6F03"/>
</svg>
