<svg width="20" height="20" viewBox="0 0 20 20" fill="none" xmlns="http://www.w3.org/2000/svg">
<path d="M6.75313 0.791203C8.70384 0.0615677 10.8994 0.0599015 12.8868 0.659602C15.4738 1.46253 17.6578 3.41489 18.7989 5.86533C19.1137 6.56332 19.4152 7.29129 19.4452 8.06756C17.9909 7.22465 16.3967 6.67826 14.7992 6.18018C12.2438 5.25897 9.56841 4.61929 7.14961 3.35325C6.58655 3.01676 5.86857 2.67193 5.71531 1.97061C5.65368 1.36425 6.29503 1.02609 6.75313 0.791203Z" fill="#5493F7"/>
<path d="M0.864412 6.68837C1.42913 5.15579 2.35533 3.73316 3.61304 2.67868C3.93288 5.30905 5.05232 7.85113 6.9014 9.76351C9.11862 12.0674 12.277 13.4817 15.4904 13.4284C16.7665 13.4684 18.0142 13.1735 19.2586 12.9353C18.0342 17.3598 13.1849 20.2966 8.69217 19.5903C5.98019 19.2438 3.47644 17.638 1.96553 15.3707C0.26138 12.8653 -0.168405 9.53862 0.864412 6.68837Z" fill="#5493F7"/>
<path d="M14.7 6C16.2974 6.49809 17.8916 7.0445 19.3458 7.88743L19.4441 7.93907C19.579 8.95358 19.6773 9.98809 19.4974 11.0043C18.7661 10.6944 18.1731 10.1497 17.5534 9.66824C16.3607 8.67538 15.143 7.53926 14.7 6Z" fill="#0D3BA5"/>
<path d="M19.9775 15.4677H10.0222V15.4678H19.9775V15.4677Z" fill="#C42126"/>
<path d="M19.4589 12.7382H10.541V12.7383H19.4589V12.7382Z" fill="#C42126"/>
<path d="M19.8131 13.6478H10.1863V13.648H19.8131V13.6478Z" fill="#C42126"/>
<path d="M12.1488 19.1066H17.8508L17.8511 19.1063H12.1484L12.1488 19.1066Z" fill="#C42126"/>
<path d="M14.9999 10C14.9017 10 14.8042 10.0035 14.7075 10.0091H15.2923C15.1955 10.0035 15.0981 10 14.9999 10Z" fill="#C42126"/>
<path d="M19.979 14.5577H10.0205V14.5579H19.979V14.5577Z" fill="#C42126"/>
<path d="M16.4779 11.8284H18.8654C18.5818 11.4832 18.2522 11.1776 17.8871 10.9189H16.0942C16.2426 11.1799 16.3702 11.4879 16.4779 11.8284Z" fill="#E7E7E7"/>
<path d="M16.0942 10.9188H17.887C17.1458 10.3936 16.256 10.0647 15.2924 10.009H15.1384C15.592 10.0661 15.8003 10.4018 16.0942 10.9188Z" fill="#DC3027"/>
<path d="M19.8136 13.648C19.7247 13.3309 19.6054 13.0267 19.4589 12.7384H16.7122C16.7678 13.0304 16.8117 13.3355 16.8442 13.648H19.8136Z" fill="#E7E7E7"/>
<path d="M16.5577 12.7382H19.4589C19.2936 12.413 19.0949 12.1079 18.8654 11.8285H16.3311C16.4204 12.1114 16.4963 12.4165 16.5577 12.7382Z" fill="#DC3027"/>
<path d="M16.9495 15.4674H19.9775C19.9919 15.3135 20 15.1576 20 15C20 14.8509 19.9922 14.7036 19.9794 14.5577H16.9502C16.96 14.8603 16.9599 15.165 16.9495 15.4674Z" fill="#E7E7E7"/>
<path d="M19.9793 14.5576C19.9519 14.2452 19.8956 13.9413 19.8134 13.6481H16.7166C16.7476 13.9459 16.7682 14.2507 16.7782 14.5576H19.9793Z" fill="#DC3027"/>
<path d="M16.6599 17.287H19.4458C19.5944 16.999 19.7155 16.6946 19.8063 16.3773H16.7946C16.7614 16.6903 16.7164 16.9953 16.6599 17.287Z" fill="#E7E7E7"/>
<path d="M19.8064 16.3772C19.8903 16.084 19.9485 15.7801 19.9775 15.4676H16.855C16.8444 15.7748 16.8232 16.0794 16.7915 16.3772H19.8064Z" fill="#DC3027"/>
<path d="M17.8515 19.1063C18.2219 18.8486 18.5561 18.5427 18.8442 18.1967H16.4983C16.3886 18.5387 16.2585 18.8462 16.1074 19.1063H17.8515Z" fill="#E7E7E7"/>
<path d="M16.4099 18.1967H18.8441C19.0764 17.9176 19.278 17.6125 19.4458 17.287H16.6394C16.5771 17.6089 16.5005 17.9142 16.4099 18.1967Z" fill="#DC3027"/>
<path d="M14.8189 19.9965C14.8088 19.9961 14.7987 19.9957 14.7886 19.9954C14.7987 19.9957 14.8088 19.9961 14.8189 19.9965Z" fill="#DC3027"/>
<path d="M15 20.0001C16.06 20.0001 17.0422 19.6692 17.8511 19.1067H16.0416C15.7204 19.66 15.5085 20.0001 15 20.0001Z" fill="#DC3027"/>
<path d="M15 20C14.9393 20 14.879 19.9986 14.8188 19.9965C14.8796 19.9985 14.94 20 15 20Z" fill="#C42126"/>
<path d="M16.2596 10.9189H12.1129C11.7477 11.1776 11.4182 11.4832 11.1345 11.8284H16.6431C16.5354 11.4879 16.4079 11.1799 16.2596 10.9189Z" fill="#F3F4F5"/>
<path d="M12.113 10.9188H16.2597C15.9658 10.4018 15.5919 10.0661 15.1384 10.009H14.7076C13.7439 10.0647 12.8541 10.3936 12.113 10.9188Z" fill="#E73625"/>
<path d="M10.1865 13.648H17.0019C16.9694 13.3354 16.9255 13.0304 16.8699 12.7384H10.5412C10.3946 13.0267 10.2754 13.3309 10.1865 13.648Z" fill="#F3F4F5"/>
<path d="M11.1347 11.8284C10.9053 12.1078 10.7065 12.4129 10.5413 12.7381H16.8699C16.8085 12.4165 16.7327 12.1114 16.6433 11.8284C16.6433 11.8284 11.1347 11.8284 11.1347 11.8284Z" fill="#E73625"/>
<path d="M10 15.0001C10 15.1576 10.0082 15.3136 10.0225 15.4674H17.063C17.0734 15.165 17.0736 14.8604 17.0637 14.5579H10.0206C10.0078 14.7037 10 14.8509 10 15.0001Z" fill="#F3F4F5"/>
<path d="M10.0205 14.5576H17.0635C17.0535 14.2506 17.0329 13.946 17.0018 13.6481H10.1863C10.1041 13.9414 10.0478 14.2452 10.0205 14.5576Z" fill="#E73625"/>
<path d="M16.9994 16.3771H10.1936C10.2844 16.6945 10.4056 16.9988 10.5541 17.2868H16.8647C16.9212 16.9951 16.9661 16.6902 16.9994 16.3771Z" fill="#F3F4F5"/>
<path d="M10.1936 16.3772H16.9994C17.0311 16.0794 17.0523 15.7747 17.0629 15.4676H10.0225C10.0514 15.7801 10.1098 16.084 10.1936 16.3772Z" fill="#E73625"/>
<path d="M12.1488 19.1063H16.2446C16.3956 18.8461 16.5259 18.5387 16.6355 18.1967H11.156C11.4441 18.5427 11.7783 18.8486 12.1488 19.1063Z" fill="#F3F4F5"/>
<path d="M10.5542 17.2869C10.722 17.6124 10.9236 17.9176 11.1559 18.1966H16.6353C16.7258 17.9142 16.8024 17.6089 16.8647 17.2869H10.5542Z" fill="#E73625"/>
<path d="M14.7884 19.9953C14.7985 19.9956 14.8086 19.9961 14.8187 19.9964C14.8789 19.9985 14.9392 19.9999 14.9999 19.9999C15.5084 19.9999 15.923 19.6599 16.2442 19.1066H12.1489C12.9036 19.6314 13.8094 19.9545 14.7884 19.9953Z" fill="#E73625"/>
<path d="M14.8966 10.0026C12.3343 10.0547 10.246 12.033 10.0212 14.5495H14.8967V10.0026H14.8966Z" fill="#283991"/>
<path d="M11.0005 12.8329L11.0766 13.0674H11.3234L11.1238 13.2125L11.2 13.4472L11.0005 13.3021L10.801 13.4472L10.8771 13.2125L10.6775 13.0674H10.9243L11.0005 12.8329Z" fill="#EFEFEF"/>
<path d="M11.0005 13.6616L11.0766 13.8963H11.3234L11.1238 14.0413L11.2 14.276L11.0005 14.1309L10.801 14.276L10.8771 14.0413L10.6775 13.8963H10.9243L11.0005 13.6616Z" fill="#EFEFEF"/>
<path d="M11.8294 11.5897L11.9056 11.8244H12.1523L11.9527 11.9695L12.0289 12.204L11.8294 12.0591L11.6298 12.204L11.706 11.9695L11.5063 11.8244H11.7531L11.8294 11.5897Z" fill="#EFEFEF"/>
<path d="M11.8294 12.4185L11.9056 12.6531H12.1523L11.9527 12.798L12.0289 13.0328L11.8294 12.8878L11.6298 13.0328L11.706 12.798L11.5063 12.6531H11.7531L11.8294 12.4185Z" fill="#EFEFEF"/>
<path d="M11.8294 13.2472L11.9056 13.4819H12.1523L11.9527 13.6268L12.0289 13.8615L11.8294 13.7164L11.6298 13.8615L11.706 13.6268L11.5063 13.4819H11.7531L11.8294 13.2472Z" fill="#EFEFEF"/>
<path d="M10.3714 13.8615L10.2952 13.6268L10.4948 13.4818H10.2481L10.2426 13.4647C10.2155 13.5485 10.191 13.6333 10.1685 13.719L10.1719 13.7164L10.3714 13.8615Z" fill="#EFEFEF"/>
<path d="M10.801 12.6184L11.0005 12.4733L11.2001 12.6184L11.1239 12.3837L11.3235 12.2386H11.0767L11.0005 12.004L10.9243 12.2386H10.8333C10.8165 12.2642 10.8001 12.2899 10.7837 12.3159L10.8772 12.3837L10.801 12.6184Z" fill="#EFEFEF"/>
<path d="M11.8294 11.2302L12.0289 11.3752L11.9527 11.1406L12.1522 10.9955H12.0097C11.8887 11.086 11.7719 11.1818 11.6597 11.2828L11.6296 11.3752L11.8294 11.2302Z" fill="#EFEFEF"/>
<path d="M12.4587 10.9608L12.6583 10.8157L12.8578 10.9608L12.7816 10.7261L12.9811 10.5811H12.7344L12.7241 10.5496C12.6405 10.5923 12.5578 10.6367 12.4769 10.684L12.5348 10.7261L12.4587 10.9608Z" fill="#EFEFEF"/>
<path d="M12.6583 11.1753L12.7344 11.4098H12.9812L12.7816 11.5549L12.8578 11.7896L12.6583 11.6445L12.4587 11.7896L12.5349 11.5549L12.3352 11.4098H12.582L12.6583 11.1753Z" fill="#EFEFEF"/>
<path d="M12.6583 12.0042L12.7344 12.2386H12.9812L12.7816 12.3837L12.8578 12.6185L12.6583 12.4733L12.4587 12.6185L12.5349 12.3837L12.3352 12.2386H12.582L12.6583 12.0042Z" fill="#EFEFEF"/>
<path d="M12.6583 12.8329L12.7344 13.0674H12.9812L12.7816 13.2125L12.8578 13.4472L12.6583 13.3021L12.4587 13.4472L12.5349 13.2125L12.3352 13.0674H12.582L12.6583 12.8329Z" fill="#EFEFEF"/>
<path d="M12.6583 13.6616L12.7344 13.8963H12.9812L12.7816 14.0413L12.8578 14.276L12.6583 14.1309L12.4587 14.276L12.5349 14.0413L12.3352 13.8963H12.582L12.6583 13.6616Z" fill="#EFEFEF"/>
<path d="M13.4869 10.7609L13.5631 10.9955H13.8098L13.6103 11.1406L13.6864 11.3752L13.4869 11.2302L13.2872 11.3752L13.3635 11.1406L13.1638 10.9955H13.4106L13.4869 10.7609Z" fill="#EFEFEF"/>
<path d="M13.4869 11.5897L13.5631 11.8244H13.8098L13.6103 11.9695L13.6864 12.204L13.4869 12.0591L13.2872 12.204L13.3635 11.9695L13.1638 11.8244H13.4106L13.4869 11.5897Z" fill="#EFEFEF"/>
<path d="M13.4869 12.4185L13.5631 12.6531H13.8098L13.6103 12.798L13.6864 13.0328L13.4869 12.8878L13.2872 13.0328L13.3635 12.798L13.1638 12.6531H13.4106L13.4869 12.4185Z" fill="#EFEFEF"/>
<path d="M13.4869 13.2472L13.5631 13.4819H13.8098L13.6103 13.6268L13.6864 13.8615L13.4869 13.7164L13.2872 13.8615L13.3635 13.6268L13.1638 13.4819H13.4106L13.4869 13.2472Z" fill="#EFEFEF"/>
<path d="M14.316 10.3466L14.3922 10.5812H14.6389L14.4393 10.7261L14.5155 10.9609L14.316 10.8157L14.1163 10.9609L14.1926 10.7261L13.9929 10.5812H14.2396L14.316 10.3466Z" fill="#EFEFEF"/>
<path d="M14.316 11.1753L14.3922 11.4098H14.6389L14.4393 11.5549L14.5155 11.7896L14.316 11.6445L14.1163 11.7896L14.1926 11.5549L13.9929 11.4098H14.2396L14.316 11.1753Z" fill="#EFEFEF"/>
<path d="M14.316 12.0042L14.3922 12.2386H14.6389L14.4393 12.3837L14.5155 12.6185L14.316 12.4733L14.1163 12.6185L14.1926 12.3837L13.9929 12.2386H14.2396L14.316 12.0042Z" fill="#EFEFEF"/>
<path d="M14.316 12.8329L14.3922 13.0674H14.6389L14.4393 13.2125L14.5155 13.4472L14.316 13.3021L14.1163 13.4472L14.1926 13.2125L13.9929 13.0674H14.2396L14.316 12.8329Z" fill="#EFEFEF"/>
<path d="M14.316 13.6616L14.3922 13.8963H14.6389L14.4393 14.0413L14.5155 14.276L14.316 14.1309L14.1163 14.276L14.1926 14.0413L13.9929 13.8963H14.2396L14.316 13.6616Z" fill="#EFEFEF"/>
</svg>
